<?xml version="1.0" encoding="UTF-8" standalone="no"?>
<svg width="370px" height="204px" viewBox="0 0 370 204" version="1.1" xmlns="http://www.w3.org/2000/svg" xmlns:xlink="http://www.w3.org/1999/xlink" xmlns:sketch="http://www.bohemiancoding.com/sketch/ns">
    <!-- Generator: Sketch 3.2 (9964) - http://www.bohemiancoding.com/sketch -->
    <title>im-check-example</title>
    <desc>Created with Sketch.</desc>
    <defs></defs>
    <g id="payment-loan" stroke="none" stroke-width="1" fill="none" fill-rule="evenodd" sketch:type="MSPage">
        <g id="im-check-example" sketch:type="MSLayerGroup" transform="translate(0.000000, -1.000000)">
            <rect id="Rectangle-33" fill="#6B737B" sketch:type="MSShapeGroup" x="0" y="1" width="370" height="170" rx="3"></rect>
            <path d="M350,1 L370,21 L370,1 L350,1 Z" id="Rectangle-742" fill="#F9F9F9" sketch:type="MSShapeGroup"></path>
            <path d="M350,1 L370,21 L370,1 L350,1 Z" id="Rectangle-743" fill="#A1ACB5" sketch:type="MSShapeGroup" transform="translate(360.000000, 11.000000) rotate(-180.000000) translate(-360.000000, -11.000000) "></path>
            <path d="M350,21 L370,41 L370,21 L350,21 Z" id="Rectangle-744" fill="#3F4449" sketch:type="MSShapeGroup"></path>
            <g id="DATE-+-Rectangle-744" transform="translate(244.000000, 21.000000)" fill="#CAD0D7" sketch:type="MSShapeGroup">
                <rect id="Rectangle-744" x="26" y="11" width="80" height="1"></rect>
                <path d="M2.912,10.728 L2.912,4.704 L3.644,4.704 C3.97200164,4.704 4.23399902,4.76599938 4.43,4.89 C4.62600098,5.01400062 4.7739995,5.19799878 4.874,5.442 C4.9740005,5.68600122 5.03999984,5.99199816 5.072,6.36 C5.10400016,6.72800184 5.12,7.15599756 5.12,7.644 C5.12,8.22800292 5.10200018,8.71599804 5.066,9.108 C5.02999982,9.50000196 4.95800054,9.8159988 4.85,10.056 C4.74199946,10.2960012 4.59600092,10.4679995 4.412,10.572 C4.22799908,10.6760005 3.98400152,10.728 3.68,10.728 L2.912,10.728 Z M1.184,3.432 L1.184,12 L3.908,12 C4.48400288,12 4.95999812,11.9120009 5.336,11.736 C5.71200188,11.5599991 6.01199888,11.2920018 6.236,10.932 C6.46000112,10.5719982 6.61799954,10.1140028 6.71,9.558 C6.80200046,9.00199722 6.848,8.34800376 6.848,7.596 C6.848,6.96399684 6.81200036,6.39200256 6.74,5.88 C6.66799964,5.36799744 6.53000102,4.93000182 6.326,4.566 C6.12199898,4.20199818 5.83600184,3.92200098 5.468,3.726 C5.09999816,3.52999902 4.616003,3.432 4.016,3.432 L1.184,3.432 Z M11.564,8.772 L10.736,4.92 L10.712,4.92 L9.884,8.772 L11.564,8.772 Z M11.792,3.432 L14.06,12 L12.26,12 L11.864,10.188 L9.584,10.188 L9.188,12 L7.388,12 L9.656,3.432 L11.792,3.432 Z M19.016,3.432 L13.544,3.432 L13.544,4.848 L15.416,4.848 L15.416,12 L17.144,12 L17.144,4.848 L19.016,4.848 L19.016,3.432 Z M24.548,3.432 L19.76,3.432 L19.76,12 L24.668,12 L24.668,10.584 L21.488,10.584 L21.488,8.28 L24.368,8.28 L24.368,6.864 L21.488,6.864 L21.488,4.848 L24.548,4.848 L24.548,3.432 Z" id="DATE"></path>
            </g>
            <rect id="Rectangle-744" fill="#CAD0D7" sketch:type="MSShapeGroup" x="270" y="86" width="80" height="1"></rect>
            <g id="ORDER-OF-+-PAY-OF-THE-+-Rectangle-745" transform="translate(15.000000, 63.000000)" fill="#CAD0D7" sketch:type="MSShapeGroup">
                <rect id="Rectangle-745" x="47" y="23" width="190" height="1"></rect>
                <path d="M2.648,19.716 C2.648,19.1399971 2.66199986,18.652002 2.69,18.252 C2.71800014,17.851998 2.77399958,17.5240013 2.858,17.268 C2.94200042,17.0119987 3.06199922,16.8260006 3.218,16.71 C3.37400078,16.5939994 3.57999872,16.536 3.836,16.536 C4.09200128,16.536 4.29799922,16.5939994 4.454,16.71 C4.61000078,16.8260006 4.72999958,17.0119987 4.814,17.268 C4.89800042,17.5240013 4.95399986,17.851998 4.982,18.252 C5.01000014,18.652002 5.024,19.1399971 5.024,19.716 C5.024,20.2920029 5.01000014,20.781998 4.982,21.186 C4.95399986,21.590002 4.89800042,21.9179987 4.814,22.17 C4.72999958,22.4220013 4.61000078,22.6059994 4.454,22.722 C4.29799922,22.8380006 4.09200128,22.896 3.836,22.896 C3.57999872,22.896 3.37400078,22.8380006 3.218,22.722 C3.06199922,22.6059994 2.94200042,22.4220013 2.858,22.17 C2.77399958,21.9179987 2.71800014,21.590002 2.69,21.186 C2.66199986,20.781998 2.648,20.2920029 2.648,19.716 L2.648,19.716 Z M0.92,19.716 C0.92,20.3720033 0.9499997,20.9719973 1.01,21.516 C1.0700003,22.0600027 1.20199898,22.527998 1.406,22.92 C1.61000102,23.312002 1.90399808,23.611999 2.288,23.82 C2.67200192,24.028001 3.18799676,24.132 3.836,24.132 C4.48400324,24.132 4.99999808,24.028001 5.384,23.82 C5.76800192,23.611999 6.06199898,23.312002 6.266,22.92 C6.47000102,22.527998 6.6019997,22.0600027 6.662,21.516 C6.7220003,20.9719973 6.752,20.3720033 6.752,19.716 C6.752,19.0679968 6.7220003,18.4700027 6.662,17.922 C6.6019997,17.3739973 6.47000102,16.904002 6.266,16.512 C6.06199898,16.119998 5.76800192,15.8140011 5.384,15.594 C4.99999808,15.3739989 4.48400324,15.264 3.836,15.264 C3.18799676,15.264 2.67200192,15.3739989 2.288,15.594 C1.90399808,15.8140011 1.61000102,16.119998 1.406,16.512 C1.20199898,16.904002 1.0700003,17.3739973 1.01,17.922 C0.9499997,18.4700027 0.92,19.0679968 0.92,19.716 L0.92,19.716 Z M7.772,15.432 L7.772,24 L9.5,24 L9.5,20.376 L10.424,20.376 C10.7840018,20.376 11.0399992,20.471999 11.192,20.664 C11.3440008,20.856001 11.4279999,21.1199983 11.444,21.456 L11.492,23.1 C11.5,23.2680008 11.5159999,23.4299992 11.54,23.586 C11.5640001,23.7420008 11.6199996,23.8799994 11.708,24 L13.58,24 L13.58,23.928 C13.4199992,23.8399996 13.3160002,23.6760012 13.268,23.436 C13.2359998,23.1959988 13.2120001,22.8480023 13.196,22.392 C13.188,22.1599988 13.18,21.9500009 13.172,21.762 C13.164,21.5739991 13.1520001,21.4000008 13.136,21.24 C13.0879998,20.7599976 12.964001,20.4120011 12.764,20.196 C12.563999,19.9799989 12.2480022,19.8400003 11.816,19.776 L11.816,19.752 C12.3040024,19.6479995 12.6639988,19.4140018 12.896,19.05 C13.1280012,18.6859982 13.244,18.2160029 13.244,17.64 C13.244,16.8959963 13.044002,16.3420018 12.644,15.978 C12.243998,15.6139982 11.6840036,15.432 10.964,15.432 L7.772,15.432 Z M9.5,19.176 L9.5,16.704 L10.316,16.704 C11.116004,16.704 11.516,17.099996 11.516,17.892 C11.516,18.3560023 11.4040011,18.685999 11.18,18.882 C10.9559989,19.078001 10.6360021,19.176 10.22,19.176 L9.5,19.176 Z M16.256,22.728 L16.256,16.704 L16.988,16.704 C17.3160016,16.704 17.577999,16.7659994 17.774,16.89 C17.970001,17.0140006 18.1179995,17.1979988 18.218,17.442 C18.3180005,17.6860012 18.3839998,17.9919982 18.416,18.36 C18.4480002,18.7280018 18.464,19.1559976 18.464,19.644 C18.464,20.2280029 18.4460002,20.715998 18.41,21.108 C18.3739998,21.500002 18.3020005,21.8159988 18.194,22.056 C18.0859995,22.2960012 17.9400009,22.4679995 17.756,22.572 C17.5719991,22.6760005 17.3280015,22.728 17.024,22.728 L16.256,22.728 Z M14.528,15.432 L14.528,24 L17.252,24 C17.8280029,24 18.3039981,23.9120009 18.68,23.736 C19.0560019,23.5599991 19.3559989,23.2920018 19.58,22.932 C19.8040011,22.5719982 19.9619995,22.1140028 20.054,21.558 C20.1460005,21.0019972 20.192,20.3480038 20.192,19.596 C20.192,18.9639968 20.1560004,18.3920026 20.084,17.88 C20.0119996,17.3679974 19.874001,16.9300018 19.67,16.566 C19.465999,16.2019982 19.1800018,15.922001 18.812,15.726 C18.4439982,15.529999 17.960003,15.432 17.36,15.432 L14.528,15.432 Z M26.12,15.432 L21.332,15.432 L21.332,24 L26.24,24 L26.24,22.584 L23.06,22.584 L23.06,20.28 L25.94,20.28 L25.94,18.864 L23.06,18.864 L23.06,16.848 L26.12,16.848 L26.12,15.432 Z M27.104,15.432 L27.104,24 L28.832,24 L28.832,20.376 L29.756,20.376 C30.1160018,20.376 30.3719992,20.471999 30.524,20.664 C30.6760008,20.856001 30.7599999,21.1199983 30.776,21.456 L30.824,23.1 C30.832,23.2680008 30.8479999,23.4299992 30.872,23.586 C30.8960001,23.7420008 30.9519996,23.8799994 31.04,24 L32.912,24 L32.912,23.928 C32.7519992,23.8399996 32.6480002,23.6760012 32.6,23.436 C32.5679998,23.1959988 32.5440001,22.8480023 32.528,22.392 C32.52,22.1599988 32.512,21.9500009 32.504,21.762 C32.496,21.5739991 32.4840001,21.4000008 32.468,21.24 C32.4199998,20.7599976 32.296001,20.4120011 32.096,20.196 C31.895999,19.9799989 31.5800022,19.8400003 31.148,19.776 L31.148,19.752 C31.6360024,19.6479995 31.9959988,19.4140018 32.228,19.05 C32.4600012,18.6859982 32.576,18.2160029 32.576,17.64 C32.576,16.8959963 32.376002,16.3420018 31.976,15.978 C31.575998,15.6139982 31.0160036,15.432 30.296,15.432 L27.104,15.432 Z M28.832,19.176 L28.832,16.704 L29.648,16.704 C30.448004,16.704 30.848,17.099996 30.848,17.892 C30.848,18.3560023 30.7360011,18.685999 30.512,18.882 C30.2879989,19.078001 29.9680021,19.176 29.552,19.176 L28.832,19.176 Z M38.204,19.716 C38.204,19.1399971 38.2179999,18.652002 38.246,18.252 C38.2740001,17.851998 38.3299996,17.5240013 38.414,17.268 C38.4980004,17.0119987 38.6179992,16.8260006 38.774,16.71 C38.9300008,16.5939994 39.1359987,16.536 39.392,16.536 C39.6480013,16.536 39.8539992,16.5939994 40.01,16.71 C40.1660008,16.8260006 40.2859996,17.0119987 40.37,17.268 C40.4540004,17.5240013 40.5099999,17.851998 40.538,18.252 C40.5660001,18.652002 40.58,19.1399971 40.58,19.716 C40.58,20.2920029 40.5660001,20.781998 40.538,21.186 C40.5099999,21.590002 40.4540004,21.9179987 40.37,22.17 C40.2859996,22.4220013 40.1660008,22.6059994 40.01,22.722 C39.8539992,22.8380006 39.6480013,22.896 39.392,22.896 C39.1359987,22.896 38.9300008,22.8380006 38.774,22.722 C38.6179992,22.6059994 38.4980004,22.4220013 38.414,22.17 C38.3299996,21.9179987 38.2740001,21.590002 38.246,21.186 C38.2179999,20.781998 38.204,20.2920029 38.204,19.716 L38.204,19.716 Z M36.476,19.716 C36.476,20.3720033 36.5059997,20.9719973 36.566,21.516 C36.6260003,22.0600027 36.757999,22.527998 36.962,22.92 C37.166001,23.312002 37.4599981,23.611999 37.844,23.82 C38.2280019,24.028001 38.7439968,24.132 39.392,24.132 C40.0400032,24.132 40.5559981,24.028001 40.94,23.82 C41.3240019,23.611999 41.617999,23.312002 41.822,22.92 C42.026001,22.527998 42.1579997,22.0600027 42.218,21.516 C42.2780003,20.9719973 42.308,20.3720033 42.308,19.716 C42.308,19.0679968 42.2780003,18.4700027 42.218,17.922 C42.1579997,17.3739973 42.026001,16.904002 41.822,16.512 C41.617999,16.119998 41.3240019,15.8140011 40.94,15.594 C40.5559981,15.3739989 40.0400032,15.264 39.392,15.264 C38.7439968,15.264 38.2280019,15.3739989 37.844,15.594 C37.4599981,15.8140011 37.166001,16.119998 36.962,16.512 C36.757999,16.904002 36.6260003,17.3739973 36.566,17.922 C36.5059997,18.4700027 36.476,19.0679968 36.476,19.716 L36.476,19.716 Z M43.328,15.432 L43.328,24 L45.056,24 L45.056,20.28 L47.936,20.28 L47.936,18.864 L45.056,18.864 L45.056,16.848 L48.116,16.848 L48.116,15.432 L43.328,15.432 Z" id="ORDER-OF"></path>
                <path d="M2.828,4.308 L2.828,1.704 L3.548,1.704 C3.98000216,1.704 4.28799908,1.81599888 4.472,2.04 C4.65600092,2.26400112 4.748,2.59199784 4.748,3.024 C4.748,3.4640022 4.64200106,3.78799896 4.43,3.996 C4.21799894,4.20400104 3.94000172,4.308 3.596,4.308 L2.828,4.308 Z M1.1,0.432 L1.1,9 L2.828,9 L2.828,5.58 L3.752,5.58 C4.16000204,5.58 4.53199832,5.52800052 4.868,5.424 C5.20400168,5.31999948 5.48999882,5.16400104 5.726,4.956 C5.96200118,4.74799896 6.14599934,4.48000164 6.278,4.152 C6.41000066,3.82399836 6.476,3.4400022 6.476,3 C6.476,2.6799984 6.4360004,2.36600154 6.356,2.058 C6.2759996,1.74999846 6.14400092,1.4760012 5.96,1.236 C5.77599908,0.9959988 5.5340015,0.80200074 5.234,0.654 C4.9339985,0.50599926 4.5640022,0.432 4.124,0.432 L1.1,0.432 Z M10.46,5.772 L9.632,1.92 L9.608,1.92 L8.78,5.772 L10.46,5.772 Z M10.688,0.432 L12.956,9 L11.156,9 L10.76,7.188 L8.48,7.188 L8.084,9 L6.284,9 L8.552,0.432 L10.688,0.432 Z M14.276,0.432 L12.332,0.432 L14.552,5.628 L14.552,9 L16.28,9 L16.28,5.628 L18.5,0.432 L16.628,0.432 L15.428,3.744 L15.404,3.744 L14.276,0.432 Z M23.564,4.716 C23.564,4.13999712 23.5779999,3.652002 23.606,3.252 C23.6340001,2.851998 23.6899996,2.52400128 23.774,2.268 C23.8580004,2.01199872 23.9779992,1.82600058 24.134,1.71 C24.2900008,1.59399942 24.4959987,1.536 24.752,1.536 C25.0080013,1.536 25.2139992,1.59399942 25.37,1.71 C25.5260008,1.82600058 25.6459996,2.01199872 25.73,2.268 C25.8140004,2.52400128 25.8699999,2.851998 25.898,3.252 C25.9260001,3.652002 25.94,4.13999712 25.94,4.716 C25.94,5.29200288 25.9260001,5.78199798 25.898,6.186 C25.8699999,6.59000202 25.8140004,6.91799874 25.73,7.17 C25.6459996,7.42200126 25.5260008,7.60599942 25.37,7.722 C25.2139992,7.83800058 25.0080013,7.896 24.752,7.896 C24.4959987,7.896 24.2900008,7.83800058 24.134,7.722 C23.9779992,7.60599942 23.8580004,7.42200126 23.774,7.17 C23.6899996,6.91799874 23.6340001,6.59000202 23.606,6.186 C23.5779999,5.78199798 23.564,5.29200288 23.564,4.716 L23.564,4.716 Z M21.836,4.716 C21.836,5.37200328 21.8659997,5.97199728 21.926,6.516 C21.9860003,7.06000272 22.117999,7.52799804 22.322,7.92 C22.526001,8.31200196 22.8199981,8.61199896 23.204,8.82 C23.5880019,9.02800104 24.1039968,9.132 24.752,9.132 C25.4000032,9.132 25.9159981,9.02800104 26.3,8.82 C26.6840019,8.61199896 26.977999,8.31200196 27.182,7.92 C27.386001,7.52799804 27.5179997,7.06000272 27.578,6.516 C27.6380003,5.97199728 27.668,5.37200328 27.668,4.716 C27.668,4.06799676 27.6380003,3.47000274 27.578,2.922 C27.5179997,2.37399726 27.386001,1.90400196 27.182,1.512 C26.977999,1.11999804 26.6840019,0.8140011 26.3,0.594 C25.9159981,0.3739989 25.4000032,0.264 24.752,0.264 C24.1039968,0.264 23.5880019,0.3739989 23.204,0.594 C22.8199981,0.8140011 22.526001,1.11999804 22.322,1.512 C22.117999,1.90400196 21.9860003,2.37399726 21.926,2.922 C21.8659997,3.47000274 21.836,4.06799676 21.836,4.716 L21.836,4.716 Z M28.688,0.432 L28.688,9 L30.416,9 L30.416,5.28 L33.296,5.28 L33.296,3.864 L30.416,3.864 L30.416,1.848 L33.476,1.848 L33.476,0.432 L28.688,0.432 Z M41.696,0.432 L36.224,0.432 L36.224,1.848 L38.096,1.848 L38.096,9 L39.824,9 L39.824,1.848 L41.696,1.848 L41.696,0.432 Z M42.44,0.432 L42.44,9 L44.168,9 L44.168,5.196 L46.184,5.196 L46.184,9 L47.912,9 L47.912,0.432 L46.184,0.432 L46.184,3.708 L44.168,3.708 L44.168,0.432 L42.44,0.432 Z M53.9,0.432 L49.112,0.432 L49.112,9 L54.02,9 L54.02,7.584 L50.84,7.584 L50.84,5.28 L53.72,5.28 L53.72,3.864 L50.84,3.864 L50.84,1.848 L53.9,1.848 L53.9,0.432 Z" id="PAY-OF-THE"></path>
            </g>
            <rect id="Rectangle-746" fill="#CAD0D7" sketch:type="MSShapeGroup" x="16" y="106" width="280" height="1"></rect>
            <rect id="Rectangle-747" fill="#CAD0D7" sketch:type="MSShapeGroup" x="16" y="136" width="165" height="1"></rect>
            <rect id="Rectangle-748" fill="#CAD0D7" sketch:type="MSShapeGroup" x="185" y="136" width="165" height="1"></rect>
            <rect id="Rectangle-750" stroke="#FF805D" sketch:type="MSShapeGroup" x="10" y="143" width="86" height="20" rx="2"></rect>
            <rect id="Rectangle-751" stroke="#FF805D" sketch:type="MSShapeGroup" x="120" y="143" width="70" height="20" rx="2"></rect>
            <rect id="Rectangle-752" fill="#FF805D" sketch:type="MSShapeGroup" x="10" y="146" width="1" height="58"></rect>
            <rect id="Rectangle-753" fill="#FF805D" sketch:type="MSShapeGroup" x="120" y="146" width="1" height="58"></rect>
            <path d="M127.398,183.772 L126.57,179.92 L126.546,179.92 L125.718,183.772 L127.398,183.772 Z M127.626,178.432 L129.894,187 L128.094,187 L127.698,185.188 L125.418,185.188 L125.022,187 L123.222,187 L125.49,178.432 L127.626,178.432 Z M134.154,181.324 L135.882,181.324 C135.882,181.011998 135.86,180.678002 135.816,180.322 C135.772,179.965998 135.662001,179.634002 135.486,179.326 C135.309999,179.017998 135.044002,178.764001 134.688,178.564 C134.331998,178.363999 133.846003,178.264 133.23,178.264 C132.581997,178.264 132.066002,178.373999 131.682,178.594 C131.297998,178.814001 131.004001,179.119998 130.8,179.512 C130.595999,179.904002 130.464,180.373997 130.404,180.922 C130.344,181.470003 130.314,182.067997 130.314,182.716 C130.314,183.372003 130.344,183.971997 130.404,184.516 C130.464,185.060003 130.595999,185.527998 130.8,185.92 C131.004001,186.312002 131.297998,186.611999 131.682,186.82 C132.066002,187.028001 132.581997,187.132 133.23,187.132 C133.798003,187.132 134.259998,187.044001 134.616,186.868 C134.972002,186.691999 135.247999,186.448002 135.444,186.136 C135.640001,185.823998 135.774,185.460002 135.846,185.044 C135.918,184.627998 135.954,184.188002 135.954,183.724 L134.226,183.724 C134.226,184.188002 134.198,184.561999 134.142,184.846 C134.086,185.130001 134.01,185.349999 133.914,185.506 C133.818,185.662001 133.704001,185.766 133.572,185.818 C133.439999,185.87 133.298001,185.896 133.146,185.896 C132.961999,185.896 132.800001,185.858 132.66,185.782 C132.519999,185.706 132.404,185.558001 132.312,185.338 C132.22,185.117999 132.152,184.808002 132.108,184.408 C132.064,184.007998 132.042,183.484003 132.042,182.836 C132.042,182.227997 132.058,181.714002 132.09,181.294 C132.122,180.873998 132.178,180.534001 132.258,180.274 C132.338,180.013999 132.447999,179.826001 132.588,179.71 C132.728001,179.593999 132.905999,179.536 133.122,179.536 C133.514002,179.536 133.783999,179.677999 133.932,179.962 C134.080001,180.246001 134.154,180.699997 134.154,181.324 L134.154,181.324 Z M140.598,181.324 L142.326,181.324 C142.326,181.011998 142.304,180.678002 142.26,180.322 C142.216,179.965998 142.106001,179.634002 141.93,179.326 C141.753999,179.017998 141.488002,178.764001 141.132,178.564 C140.775998,178.363999 140.290003,178.264 139.674,178.264 C139.025997,178.264 138.510002,178.373999 138.126,178.594 C137.741998,178.814001 137.448001,179.119998 137.244,179.512 C137.039999,179.904002 136.908,180.373997 136.848,180.922 C136.788,181.470003 136.758,182.067997 136.758,182.716 C136.758,183.372003 136.788,183.971997 136.848,184.516 C136.908,185.060003 137.039999,185.527998 137.244,185.92 C137.448001,186.312002 137.741998,186.611999 138.126,186.82 C138.510002,187.028001 139.025997,187.132 139.674,187.132 C140.242003,187.132 140.703998,187.044001 141.06,186.868 C141.416002,186.691999 141.691999,186.448002 141.888,186.136 C142.084001,185.823998 142.218,185.460002 142.29,185.044 C142.362,184.627998 142.398,184.188002 142.398,183.724 L140.67,183.724 C140.67,184.188002 140.642,184.561999 140.586,184.846 C140.53,185.130001 140.454,185.349999 140.358,185.506 C140.262,185.662001 140.148001,185.766 140.016,185.818 C139.883999,185.87 139.742001,185.896 139.59,185.896 C139.405999,185.896 139.244001,185.858 139.104,185.782 C138.963999,185.706 138.848,185.558001 138.756,185.338 C138.664,185.117999 138.596,184.808002 138.552,184.408 C138.508,184.007998 138.486,183.484003 138.486,182.836 C138.486,182.227997 138.502,181.714002 138.534,181.294 C138.566,180.873998 138.622,180.534001 138.702,180.274 C138.782,180.013999 138.891999,179.826001 139.032,179.71 C139.172001,179.593999 139.349999,179.536 139.566,179.536 C139.958002,179.536 140.227999,179.677999 140.376,179.962 C140.524001,180.246001 140.598,180.699997 140.598,181.324 L140.598,181.324 Z M144.93,182.716 C144.93,182.139997 144.944,181.652002 144.972,181.252 C145,180.851998 145.056,180.524001 145.14,180.268 C145.224,180.011999 145.343999,179.826001 145.5,179.71 C145.656001,179.593999 145.861999,179.536 146.118,179.536 C146.374001,179.536 146.579999,179.593999 146.736,179.71 C146.892001,179.826001 147.012,180.011999 147.096,180.268 C147.18,180.524001 147.236,180.851998 147.264,181.252 C147.292,181.652002 147.306,182.139997 147.306,182.716 C147.306,183.292003 147.292,183.781998 147.264,184.186 C147.236,184.590002 147.18,184.917999 147.096,185.17 C147.012,185.422001 146.892001,185.605999 146.736,185.722 C146.579999,185.838001 146.374001,185.896 146.118,185.896 C145.861999,185.896 145.656001,185.838001 145.5,185.722 C145.343999,185.605999 145.224,185.422001 145.14,185.17 C145.056,184.917999 145,184.590002 144.972,184.186 C144.944,183.781998 144.93,183.292003 144.93,182.716 L144.93,182.716 Z M143.202,182.716 C143.202,183.372003 143.232,183.971997 143.292,184.516 C143.352,185.060003 143.483999,185.527998 143.688,185.92 C143.892001,186.312002 144.185998,186.611999 144.57,186.82 C144.954002,187.028001 145.469997,187.132 146.118,187.132 C146.766003,187.132 147.281998,187.028001 147.666,186.82 C148.050002,186.611999 148.343999,186.312002 148.548,185.92 C148.752001,185.527998 148.884,185.060003 148.944,184.516 C149.004,183.971997 149.034,183.372003 149.034,182.716 C149.034,182.067997 149.004,181.470003 148.944,180.922 C148.884,180.373997 148.752001,179.904002 148.548,179.512 C148.343999,179.119998 148.050002,178.814001 147.666,178.594 C147.281998,178.373999 146.766003,178.264 146.118,178.264 C145.469997,178.264 144.954002,178.373999 144.57,178.594 C144.185998,178.814001 143.892001,179.119998 143.688,179.512 C143.483999,179.904002 143.352,180.373997 143.292,180.922 C143.232,181.470003 143.202,182.067997 143.202,182.716 L143.202,182.716 Z M151.674,178.432 L149.946,178.432 L149.946,184.408 C149.946,184.984003 150.021999,185.451998 150.174,185.812 C150.326001,186.172002 150.529999,186.449999 150.786,186.646 C151.042001,186.842001 151.333998,186.972 151.662,187.036 C151.990002,187.1 152.329998,187.132 152.682,187.132 C153.034002,187.132 153.373998,187.096 153.702,187.024 C154.030002,186.952 154.321999,186.812001 154.578,186.604 C154.834001,186.395999 155.037999,186.114002 155.19,185.758 C155.342001,185.401998 155.418,184.952003 155.418,184.408 L155.418,178.432 L153.69,178.432 L153.69,184.408 C153.69,184.624001 153.676,184.821999 153.648,185.002 C153.62,185.182001 153.568,185.337999 153.492,185.47 C153.416,185.602001 153.314001,185.706 153.186,185.782 C153.057999,185.858 152.890001,185.896 152.682,185.896 C152.481999,185.896 152.316001,185.858 152.184,185.782 C152.051999,185.706 151.948,185.602001 151.872,185.47 C151.796,185.337999 151.744,185.182001 151.716,185.002 C151.688,184.821999 151.674,184.624001 151.674,184.408 L151.674,178.432 Z M158.502,178.432 L156.51,178.432 L156.51,187 L158.094,187 L158.094,181 L158.118,181 L160.23,187 L162.198,187 L162.198,178.432 L160.614,178.432 L160.614,184.3 L160.59,184.3 L158.502,178.432 Z M168.414,178.432 L162.942,178.432 L162.942,179.848 L164.814,179.848 L164.814,187 L166.542,187 L166.542,179.848 L168.414,179.848 L168.414,178.432 Z M174.03,178.432 L172.038,178.432 L172.038,187 L173.622,187 L173.622,181 L173.646,181 L175.758,187 L177.726,187 L177.726,178.432 L176.142,178.432 L176.142,184.3 L176.118,184.3 L174.03,178.432 Z M180.546,178.432 L178.818,178.432 L178.818,184.408 C178.818,184.984003 178.893999,185.451998 179.046,185.812 C179.198001,186.172002 179.401999,186.449999 179.658,186.646 C179.914001,186.842001 180.205998,186.972 180.534,187.036 C180.862002,187.1 181.201998,187.132 181.554,187.132 C181.906002,187.132 182.245998,187.096 182.574,187.024 C182.902002,186.952 183.193999,186.812001 183.45,186.604 C183.706001,186.395999 183.909999,186.114002 184.062,185.758 C184.214001,185.401998 184.29,184.952003 184.29,184.408 L184.29,178.432 L182.562,178.432 L182.562,184.408 C182.562,184.624001 182.548,184.821999 182.52,185.002 C182.492,185.182001 182.44,185.337999 182.364,185.47 C182.288,185.602001 182.186001,185.706 182.058,185.782 C181.929999,185.858 181.762001,185.896 181.554,185.896 C181.353999,185.896 181.188001,185.858 181.056,185.782 C180.923999,185.706 180.82,185.602001 180.744,185.47 C180.668,185.337999 180.616,185.182001 180.588,185.002 C180.56,184.821999 180.546,184.624001 180.546,184.408 L180.546,178.432 Z M185.418,178.432 L185.418,187 L187.002,187 L187.002,180.16 L187.026,180.16 L188.55,187 L189.894,187 L191.418,180.16 L191.442,180.16 L191.442,187 L193.026,187 L193.026,178.432 L190.47,178.432 L189.234,184.48 L189.21,184.48 L187.986,178.432 L185.418,178.432 Z M195.99,185.728 L195.99,183.148 L196.734,183.148 C196.926001,183.148 197.101999,183.168 197.262,183.208 C197.422001,183.248 197.559999,183.318 197.676,183.418 C197.792001,183.518001 197.884,183.649999 197.952,183.814 C198.02,183.978001 198.054,184.183999 198.054,184.432 C198.054,184.928002 197.926001,185.267999 197.67,185.452 C197.413999,185.636001 197.078002,185.728 196.662,185.728 L195.99,185.728 Z M195.99,181.948 L195.99,179.704 L196.614,179.704 C197.046002,179.704 197.361999,179.787999 197.562,179.956 C197.762001,180.124001 197.862,180.411998 197.862,180.82 C197.862,181.228002 197.752001,181.517999 197.532,181.69 C197.311999,181.862001 196.962002,181.948 196.482,181.948 L195.99,181.948 Z M194.262,178.432 L194.262,187 L197.178,187 C197.682003,187 198.103998,186.932001 198.444,186.796 C198.784002,186.659999 199.059999,186.478001 199.272,186.25 C199.484001,186.021999 199.634,185.756002 199.722,185.452 C199.81,185.147998 199.854,184.828002 199.854,184.492 C199.854,183.915997 199.714001,183.456002 199.434,183.112 C199.153999,182.767998 198.774002,182.564 198.294,182.5 L198.294,182.476 C198.726002,182.355999 199.049999,182.130002 199.266,181.798 C199.482001,181.465998 199.59,181.068002 199.59,180.604 C199.59,180.195998 199.530001,179.852001 199.41,179.572 C199.289999,179.291999 199.122001,179.068001 198.906,178.9 C198.689999,178.731999 198.432001,178.612 198.132,178.54 C197.831998,178.468 197.506002,178.432 197.154,178.432 L194.262,178.432 Z M205.722,178.432 L200.934,178.432 L200.934,187 L205.842,187 L205.842,185.584 L202.662,185.584 L202.662,183.28 L205.542,183.28 L205.542,181.864 L202.662,181.864 L202.662,179.848 L205.722,179.848 L205.722,178.432 Z M206.706,178.432 L206.706,187 L208.434,187 L208.434,183.376 L209.358,183.376 C209.718002,183.376 209.973999,183.471999 210.126,183.664 C210.278001,183.856001 210.362,184.119998 210.378,184.456 L210.426,186.1 C210.434,186.268001 210.45,186.429999 210.474,186.586 C210.498,186.742001 210.554,186.879999 210.642,187 L212.514,187 L212.514,186.928 C212.353999,186.84 212.25,186.676001 212.202,186.436 C212.17,186.195999 212.146,185.848002 212.13,185.392 C212.122,185.159999 212.114,184.950001 212.106,184.762 C212.098,184.573999 212.086,184.400001 212.07,184.24 C212.022,183.759998 211.898001,183.412001 211.698,183.196 C211.497999,182.979999 211.182002,182.84 210.75,182.776 L210.75,182.752 C211.238002,182.647999 211.597999,182.414002 211.83,182.05 C212.062001,181.685998 212.178,181.216003 212.178,180.64 C212.178,179.895996 211.978002,179.342002 211.578,178.978 C211.177998,178.613998 210.618004,178.432 209.898,178.432 L206.706,178.432 Z M208.434,182.176 L208.434,179.704 L209.25,179.704 C210.050004,179.704 210.45,180.099996 210.45,180.892 C210.45,181.356002 210.338001,181.685999 210.114,181.882 C209.889999,182.078001 209.570002,182.176 209.154,182.176 L208.434,182.176 Z" id="ACCOUNT-NUMBER" fill="#6B737B" sketch:type="MSShapeGroup"></path>
            <path d="M19.372,21.324 L21.1,21.324 C21.1,21.0119984 21.0780002,20.6780018 21.034,20.322 C20.9899998,19.9659982 20.8800009,19.6340015 20.704,19.326 C20.5279991,19.0179985 20.2620018,18.764001 19.906,18.564 C19.5499982,18.363999 19.0640031,18.264 18.448,18.264 C17.7999968,18.264 17.2840019,18.3739989 16.9,18.594 C16.5159981,18.8140011 16.222001,19.119998 16.018,19.512 C15.813999,19.904002 15.6820003,20.3739973 15.622,20.922 C15.5619997,21.4700027 15.532,22.0679968 15.532,22.716 C15.532,23.3720033 15.5619997,23.9719973 15.622,24.516 C15.6820003,25.0600027 15.813999,25.527998 16.018,25.92 C16.222001,26.312002 16.5159981,26.611999 16.9,26.82 C17.2840019,27.028001 17.7999968,27.132 18.448,27.132 C19.0160028,27.132 19.4779982,27.0440009 19.834,26.868 C20.1900018,26.6919991 20.465999,26.4480016 20.662,26.136 C20.858001,25.8239984 20.9919996,25.4600021 21.064,25.044 C21.1360004,24.6279979 21.172,24.1880023 21.172,23.724 L19.444,23.724 C19.444,24.1880023 19.4160003,24.5619986 19.36,24.846 C19.3039997,25.1300014 19.2280005,25.3499992 19.132,25.506 C19.0359995,25.6620008 18.9220007,25.7659997 18.79,25.818 C18.6579993,25.8700003 18.5160008,25.896 18.364,25.896 C18.1799991,25.896 18.0180007,25.8580004 17.878,25.782 C17.7379993,25.7059996 17.6220005,25.5580011 17.53,25.338 C17.4379995,25.1179989 17.3700002,24.808002 17.326,24.408 C17.2819998,24.007998 17.26,23.4840032 17.26,22.836 C17.26,22.227997 17.2759998,21.7140021 17.308,21.294 C17.3400002,20.8739979 17.3959996,20.5340013 17.476,20.274 C17.5560004,20.0139987 17.6659993,19.8260006 17.806,19.71 C17.9460007,19.5939994 18.1239989,19.536 18.34,19.536 C18.732002,19.536 19.0019993,19.6779986 19.15,19.962 C19.2980007,20.2460014 19.372,20.6999969 19.372,21.324 L19.372,21.324 Z M22.156,18.432 L22.156,27 L23.884,27 L23.884,23.196 L25.9,23.196 L25.9,27 L27.628,27 L27.628,18.432 L25.9,18.432 L25.9,21.708 L23.884,21.708 L23.884,18.432 L22.156,18.432 Z M33.616,18.432 L28.828,18.432 L28.828,27 L33.736,27 L33.736,25.584 L30.556,25.584 L30.556,23.28 L33.436,23.28 L33.436,21.864 L30.556,21.864 L30.556,19.848 L33.616,19.848 L33.616,18.432 Z M38.26,21.324 L39.988,21.324 C39.988,21.0119984 39.9660002,20.6780018 39.922,20.322 C39.8779998,19.9659982 39.7680009,19.6340015 39.592,19.326 C39.4159991,19.0179985 39.1500018,18.764001 38.794,18.564 C38.4379982,18.363999 37.9520031,18.264 37.336,18.264 C36.6879968,18.264 36.1720019,18.3739989 35.788,18.594 C35.4039981,18.8140011 35.110001,19.119998 34.906,19.512 C34.701999,19.904002 34.5700003,20.3739973 34.51,20.922 C34.4499997,21.4700027 34.42,22.0679968 34.42,22.716 C34.42,23.3720033 34.4499997,23.9719973 34.51,24.516 C34.5700003,25.0600027 34.701999,25.527998 34.906,25.92 C35.110001,26.312002 35.4039981,26.611999 35.788,26.82 C36.1720019,27.028001 36.6879968,27.132 37.336,27.132 C37.9040028,27.132 38.3659982,27.0440009 38.722,26.868 C39.0780018,26.6919991 39.353999,26.4480016 39.55,26.136 C39.746001,25.8239984 39.8799996,25.4600021 39.952,25.044 C40.0240004,24.6279979 40.06,24.1880023 40.06,23.724 L38.332,23.724 C38.332,24.1880023 38.3040003,24.5619986 38.248,24.846 C38.1919997,25.1300014 38.1160005,25.3499992 38.02,25.506 C37.9239995,25.6620008 37.8100007,25.7659997 37.678,25.818 C37.5459993,25.8700003 37.4040008,25.896 37.252,25.896 C37.0679991,25.896 36.9060007,25.8580004 36.766,25.782 C36.6259993,25.7059996 36.5100005,25.5580011 36.418,25.338 C36.3259995,25.1179989 36.2580002,24.808002 36.214,24.408 C36.1699998,24.007998 36.148,23.4840032 36.148,22.836 C36.148,22.227997 36.1639998,21.7140021 36.196,21.294 C36.2280002,20.8739979 36.2839996,20.5340013 36.364,20.274 C36.4440004,20.0139987 36.5539993,19.8260006 36.694,19.71 C36.8340007,19.5939994 37.0119989,19.536 37.228,19.536 C37.620002,19.536 37.8899993,19.6779986 38.038,19.962 C38.1860007,20.2460014 38.26,20.6999969 38.26,21.324 L38.26,21.324 Z M42.772,18.432 L41.044,18.432 L41.044,27 L42.772,27 L42.772,24.456 L43.408,23.484 L45.172,27 L47.116,27 L44.524,22.104 L46.852,18.432 L44.98,18.432 L42.796,21.864 L42.772,21.864 L42.772,18.432 Z" id="CHECK" fill="#FF805D" sketch:type="MSShapeGroup"></path>
            <path d="M17.49,40.728 L17.49,38.148 L18.234,38.148 C18.426001,38.148 18.6019992,38.1679998 18.762,38.208 C18.9220008,38.2480002 19.0599994,38.3179995 19.176,38.418 C19.2920006,38.5180005 19.3839997,38.6499992 19.452,38.814 C19.5200003,38.9780008 19.554,39.1839988 19.554,39.432 C19.554,39.9280025 19.4260013,40.2679991 19.17,40.452 C18.9139987,40.6360009 18.5780021,40.728 18.162,40.728 L17.49,40.728 Z M17.49,36.948 L17.49,34.704 L18.114,34.704 C18.5460022,34.704 18.861999,34.7879992 19.062,34.956 C19.262001,35.1240008 19.362,35.411998 19.362,35.82 C19.362,36.228002 19.2520011,36.5179991 19.032,36.69 C18.8119989,36.8620009 18.4620024,36.948 17.982,36.948 L17.49,36.948 Z M15.762,33.432 L15.762,42 L18.678,42 C19.1820025,42 19.6039983,41.9320007 19.944,41.796 C20.2840017,41.6599993 20.5599989,41.4780011 20.772,41.25 C20.9840011,41.0219989 21.1339996,40.7560015 21.222,40.452 C21.3100004,40.1479985 21.354,39.8280017 21.354,39.492 C21.354,38.9159971 21.2140014,38.4560017 20.934,38.112 C20.6539986,37.7679983 20.2740024,37.5640003 19.794,37.5 L19.794,37.476 C20.2260022,37.3559994 20.5499989,37.1300017 20.766,36.798 C20.9820011,36.4659983 21.09,36.0680023 21.09,35.604 C21.09,35.195998 21.0300006,34.8520014 20.91,34.572 C20.7899994,34.2919986 20.6220011,34.0680008 20.406,33.9 C20.1899989,33.7319992 19.9320015,33.6120004 19.632,33.54 C19.3319985,33.4679996 19.0060018,33.432 18.654,33.432 L15.762,33.432 Z M26.01,38.772 L25.182,34.92 L25.158,34.92 L24.33,38.772 L26.01,38.772 Z M26.238,33.432 L28.506,42 L26.706,42 L26.31,40.188 L24.03,40.188 L23.634,42 L21.834,42 L24.102,33.432 L26.238,33.432 Z M31.098,33.432 L29.106,33.432 L29.106,42 L30.69,42 L30.69,36 L30.714,36 L32.826,42 L34.794,42 L34.794,33.432 L33.21,33.432 L33.21,39.3 L33.186,39.3 L31.098,33.432 Z M37.722,33.432 L35.994,33.432 L35.994,42 L37.722,42 L37.722,39.456 L38.358,38.484 L40.122,42 L42.066,42 L39.474,37.104 L41.802,33.432 L39.93,33.432 L37.746,36.864 L37.722,36.864 L37.722,33.432 Z" id="BANK" fill="#FF805D" sketch:type="MSShapeGroup"></path>
            <path d="M16.216,153.04 C16.216,153.792004 16.2579996,154.429997 16.342,154.954 C16.4260004,155.478003 16.569999,155.903998 16.774,156.232 C16.978001,156.560002 17.2519983,156.791999 17.596,156.928 C17.9400017,157.064001 18.3679974,157.132 18.88,157.132 C19.5120032,157.132 20.0059982,157.012001 20.362,156.772 C20.7180018,156.531999 20.9839991,156.202002 21.16,155.782 C21.3360009,155.361998 21.4439998,154.880003 21.484,154.336 C21.5240002,153.791997 21.544,153.224003 21.544,152.632 C21.544,151.879996 21.5020004,151.242003 21.418,150.718 C21.3339996,150.193997 21.190001,149.768002 20.986,149.44 C20.781999,149.111998 20.5100017,148.874001 20.17,148.726 C19.8299983,148.577999 19.4000026,148.504 18.88,148.504 C18.2479968,148.504 17.7540018,148.629999 17.398,148.882 C17.0419982,149.134001 16.7760009,149.469998 16.6,149.89 C16.4239991,150.310002 16.3160002,150.791997 16.276,151.336 C16.2359998,151.880003 16.216,152.447997 16.216,153.04 L16.216,153.04 Z M17.944,153.412 L17.944,152.488 C17.944,151.943997 17.9579999,151.488002 17.986,151.12 C18.0140001,150.751998 18.0619997,150.458001 18.13,150.238 C18.1980003,150.017999 18.2919994,149.862 18.412,149.77 C18.5320006,149.678 18.687999,149.632 18.88,149.632 C19.0640009,149.632 19.2159994,149.668 19.336,149.74 C19.4560006,149.812 19.5519996,149.945999 19.624,150.142 C19.6960004,150.338001 19.7459999,150.605998 19.774,150.946 C19.8020001,151.286002 19.816,151.723997 19.816,152.26 L19.816,153.184 C19.816,153.728003 19.8020001,154.183998 19.774,154.552 C19.7459999,154.920002 19.6980003,155.213999 19.63,155.434 C19.5619997,155.654001 19.4680006,155.81 19.348,155.902 C19.2279994,155.994 19.072001,156.04 18.88,156.04 C18.6959991,156.04 18.5440006,156.004 18.424,155.932 C18.3039994,155.86 18.2080004,155.726001 18.136,155.53 C18.0639996,155.333999 18.0140001,155.066002 17.986,154.726 C17.9579999,154.385998 17.944,153.948003 17.944,153.412 L17.944,153.412 Z M24.856,153.04 C24.856,153.792004 24.8979996,154.429997 24.982,154.954 C25.0660004,155.478003 25.209999,155.903998 25.414,156.232 C25.618001,156.560002 25.8919983,156.791999 26.236,156.928 C26.5800017,157.064001 27.0079974,157.132 27.52,157.132 C28.1520032,157.132 28.6459982,157.012001 29.002,156.772 C29.3580018,156.531999 29.6239991,156.202002 29.8,155.782 C29.9760009,155.361998 30.0839998,154.880003 30.124,154.336 C30.1640002,153.791997 30.184,153.224003 30.184,152.632 C30.184,151.879996 30.1420004,151.242003 30.058,150.718 C29.9739996,150.193997 29.830001,149.768002 29.626,149.44 C29.421999,149.111998 29.1500017,148.874001 28.81,148.726 C28.4699983,148.577999 28.0400026,148.504 27.52,148.504 C26.8879968,148.504 26.3940018,148.629999 26.038,148.882 C25.6819982,149.134001 25.4160009,149.469998 25.24,149.89 C25.0639991,150.310002 24.9560002,150.791997 24.916,151.336 C24.8759998,151.880003 24.856,152.447997 24.856,153.04 L24.856,153.04 Z M26.584,153.412 L26.584,152.488 C26.584,151.943997 26.5979999,151.488002 26.626,151.12 C26.6540001,150.751998 26.7019997,150.458001 26.77,150.238 C26.8380003,150.017999 26.9319994,149.862 27.052,149.77 C27.1720006,149.678 27.327999,149.632 27.52,149.632 C27.7040009,149.632 27.8559994,149.668 27.976,149.74 C28.0960006,149.812 28.1919996,149.945999 28.264,150.142 C28.3360004,150.338001 28.3859999,150.605998 28.414,150.946 C28.4420001,151.286002 28.456,151.723997 28.456,152.26 L28.456,153.184 C28.456,153.728003 28.4420001,154.183998 28.414,154.552 C28.3859999,154.920002 28.3380003,155.213999 28.27,155.434 C28.2019997,155.654001 28.1080006,155.81 27.988,155.902 C27.8679994,155.994 27.712001,156.04 27.52,156.04 C27.3359991,156.04 27.1840006,156.004 27.064,155.932 C26.9439994,155.86 26.8480004,155.726001 26.776,155.53 C26.7039996,155.333999 26.6540001,155.066002 26.626,154.726 C26.5979999,154.385998 26.584,153.948003 26.584,153.412 L26.584,153.412 Z M33.496,153.04 C33.496,153.792004 33.5379996,154.429997 33.622,154.954 C33.7060004,155.478003 33.849999,155.903998 34.054,156.232 C34.258001,156.560002 34.5319983,156.791999 34.876,156.928 C35.2200017,157.064001 35.6479974,157.132 36.16,157.132 C36.7920032,157.132 37.2859982,157.012001 37.642,156.772 C37.9980018,156.531999 38.2639991,156.202002 38.44,155.782 C38.6160009,155.361998 38.7239998,154.880003 38.764,154.336 C38.8040002,153.791997 38.824,153.224003 38.824,152.632 C38.824,151.879996 38.7820004,151.242003 38.698,150.718 C38.6139996,150.193997 38.470001,149.768002 38.266,149.44 C38.061999,149.111998 37.7900017,148.874001 37.45,148.726 C37.1099983,148.577999 36.6800026,148.504 36.16,148.504 C35.5279968,148.504 35.0340018,148.629999 34.678,148.882 C34.3219982,149.134001 34.0560009,149.469998 33.88,149.89 C33.7039991,150.310002 33.5960002,150.791997 33.556,151.336 C33.5159998,151.880003 33.496,152.447997 33.496,153.04 L33.496,153.04 Z M35.224,153.412 L35.224,152.488 C35.224,151.943997 35.2379999,151.488002 35.266,151.12 C35.2940001,150.751998 35.3419997,150.458001 35.41,150.238 C35.4780003,150.017999 35.5719994,149.862 35.692,149.77 C35.8120006,149.678 35.967999,149.632 36.16,149.632 C36.3440009,149.632 36.4959994,149.668 36.616,149.74 C36.7360006,149.812 36.8319996,149.945999 36.904,150.142 C36.9760004,150.338001 37.0259999,150.605998 37.054,150.946 C37.0820001,151.286002 37.096,151.723997 37.096,152.26 L37.096,153.184 C37.096,153.728003 37.0820001,154.183998 37.054,154.552 C37.0259999,154.920002 36.9780003,155.213999 36.91,155.434 C36.8419997,155.654001 36.7480006,155.81 36.628,155.902 C36.5079994,155.994 36.352001,156.04 36.16,156.04 C35.9759991,156.04 35.8240006,156.004 35.704,155.932 C35.5839994,155.86 35.4880004,155.726001 35.416,155.53 C35.3439996,155.333999 35.2940001,155.066002 35.266,154.726 C35.2379999,154.385998 35.224,153.948003 35.224,153.412 L35.224,153.412 Z M42.136,153.04 C42.136,153.792004 42.1779996,154.429997 42.262,154.954 C42.3460004,155.478003 42.489999,155.903998 42.694,156.232 C42.898001,156.560002 43.1719983,156.791999 43.516,156.928 C43.8600017,157.064001 44.2879974,157.132 44.8,157.132 C45.4320032,157.132 45.9259982,157.012001 46.282,156.772 C46.6380018,156.531999 46.9039991,156.202002 47.08,155.782 C47.2560009,155.361998 47.3639998,154.880003 47.404,154.336 C47.4440002,153.791997 47.464,153.224003 47.464,152.632 C47.464,151.879996 47.4220004,151.242003 47.338,150.718 C47.2539996,150.193997 47.110001,149.768002 46.906,149.44 C46.701999,149.111998 46.4300017,148.874001 46.09,148.726 C45.7499983,148.577999 45.3200026,148.504 44.8,148.504 C44.1679968,148.504 43.6740018,148.629999 43.318,148.882 C42.9619982,149.134001 42.6960009,149.469998 42.52,149.89 C42.3439991,150.310002 42.2360002,150.791997 42.196,151.336 C42.1559998,151.880003 42.136,152.447997 42.136,153.04 L42.136,153.04 Z M43.864,153.412 L43.864,152.488 C43.864,151.943997 43.8779999,151.488002 43.906,151.12 C43.9340001,150.751998 43.9819997,150.458001 44.05,150.238 C44.1180003,150.017999 44.2119994,149.862 44.332,149.77 C44.4520006,149.678 44.607999,149.632 44.8,149.632 C44.9840009,149.632 45.1359994,149.668 45.256,149.74 C45.3760006,149.812 45.4719996,149.945999 45.544,150.142 C45.6160004,150.338001 45.6659999,150.605998 45.694,150.946 C45.7220001,151.286002 45.736,151.723997 45.736,152.26 L45.736,153.184 C45.736,153.728003 45.7220001,154.183998 45.694,154.552 C45.6659999,154.920002 45.6180003,155.213999 45.55,155.434 C45.4819997,155.654001 45.3880006,155.81 45.268,155.902 C45.1479994,155.994 44.992001,156.04 44.8,156.04 C44.6159991,156.04 44.4640006,156.004 44.344,155.932 C44.2239994,155.86 44.1280004,155.726001 44.056,155.53 C43.9839996,155.333999 43.9340001,155.066002 43.906,154.726 C43.8779999,154.385998 43.864,153.948003 43.864,153.412 L43.864,153.412 Z M50.776,153.04 C50.776,153.792004 50.8179996,154.429997 50.902,154.954 C50.9860004,155.478003 51.129999,155.903998 51.334,156.232 C51.538001,156.560002 51.8119983,156.791999 52.156,156.928 C52.5000017,157.064001 52.9279974,157.132 53.44,157.132 C54.0720032,157.132 54.5659982,157.012001 54.922,156.772 C55.2780018,156.531999 55.5439991,156.202002 55.72,155.782 C55.8960009,155.361998 56.0039998,154.880003 56.044,154.336 C56.0840002,153.791997 56.104,153.224003 56.104,152.632 C56.104,151.879996 56.0620004,151.242003 55.978,150.718 C55.8939996,150.193997 55.750001,149.768002 55.546,149.44 C55.341999,149.111998 55.0700017,148.874001 54.73,148.726 C54.3899983,148.577999 53.9600026,148.504 53.44,148.504 C52.8079968,148.504 52.3140018,148.629999 51.958,148.882 C51.6019982,149.134001 51.3360009,149.469998 51.16,149.89 C50.9839991,150.310002 50.8760002,150.791997 50.836,151.336 C50.7959998,151.880003 50.776,152.447997 50.776,153.04 L50.776,153.04 Z M52.504,153.412 L52.504,152.488 C52.504,151.943997 52.5179999,151.488002 52.546,151.12 C52.5740001,150.751998 52.6219997,150.458001 52.69,150.238 C52.7580003,150.017999 52.8519994,149.862 52.972,149.77 C53.0920006,149.678 53.247999,149.632 53.44,149.632 C53.6240009,149.632 53.7759994,149.668 53.896,149.74 C54.0160006,149.812 54.1119996,149.945999 54.184,150.142 C54.2560004,150.338001 54.3059999,150.605998 54.334,150.946 C54.3620001,151.286002 54.376,151.723997 54.376,152.26 L54.376,153.184 C54.376,153.728003 54.3620001,154.183998 54.334,154.552 C54.3059999,154.920002 54.2580003,155.213999 54.19,155.434 C54.1219997,155.654001 54.0280006,155.81 53.908,155.902 C53.7879994,155.994 53.632001,156.04 53.44,156.04 C53.2559991,156.04 53.1040006,156.004 52.984,155.932 C52.8639994,155.86 52.7680004,155.726001 52.696,155.53 C52.6239996,155.333999 52.5740001,155.066002 52.546,154.726 C52.5179999,154.385998 52.504,153.948003 52.504,153.412 L52.504,153.412 Z M59.416,153.04 C59.416,153.792004 59.4579996,154.429997 59.542,154.954 C59.6260004,155.478003 59.769999,155.903998 59.974,156.232 C60.178001,156.560002 60.4519983,156.791999 60.796,156.928 C61.1400017,157.064001 61.5679974,157.132 62.08,157.132 C62.7120032,157.132 63.2059982,157.012001 63.562,156.772 C63.9180018,156.531999 64.1839991,156.202002 64.36,155.782 C64.5360009,155.361998 64.6439998,154.880003 64.684,154.336 C64.7240002,153.791997 64.744,153.224003 64.744,152.632 C64.744,151.879996 64.7020004,151.242003 64.618,150.718 C64.5339996,150.193997 64.390001,149.768002 64.186,149.44 C63.981999,149.111998 63.7100017,148.874001 63.37,148.726 C63.0299983,148.577999 62.6000026,148.504 62.08,148.504 C61.4479968,148.504 60.9540018,148.629999 60.598,148.882 C60.2419982,149.134001 59.9760009,149.469998 59.8,149.89 C59.6239991,150.310002 59.5160002,150.791997 59.476,151.336 C59.4359998,151.880003 59.416,152.447997 59.416,153.04 L59.416,153.04 Z M61.144,153.412 L61.144,152.488 C61.144,151.943997 61.1579999,151.488002 61.186,151.12 C61.2140001,150.751998 61.2619997,150.458001 61.33,150.238 C61.3980003,150.017999 61.4919994,149.862 61.612,149.77 C61.7320006,149.678 61.887999,149.632 62.08,149.632 C62.2640009,149.632 62.4159994,149.668 62.536,149.74 C62.6560006,149.812 62.7519996,149.945999 62.824,150.142 C62.8960004,150.338001 62.9459999,150.605998 62.974,150.946 C63.0020001,151.286002 63.016,151.723997 63.016,152.26 L63.016,153.184 C63.016,153.728003 63.0020001,154.183998 62.974,154.552 C62.9459999,154.920002 62.8980003,155.213999 62.83,155.434 C62.7619997,155.654001 62.6680006,155.81 62.548,155.902 C62.4279994,155.994 62.272001,156.04 62.08,156.04 C61.8959991,156.04 61.7440006,156.004 61.624,155.932 C61.5039994,155.86 61.4080004,155.726001 61.336,155.53 C61.2639996,155.333999 61.2140001,155.066002 61.186,154.726 C61.1579999,154.385998 61.144,153.948003 61.144,153.412 L61.144,153.412 Z M68.056,153.04 C68.056,153.792004 68.0979996,154.429997 68.182,154.954 C68.2660004,155.478003 68.409999,155.903998 68.614,156.232 C68.818001,156.560002 69.0919983,156.791999 69.436,156.928 C69.7800017,157.064001 70.2079974,157.132 70.72,157.132 C71.3520032,157.132 71.8459982,157.012001 72.202,156.772 C72.5580018,156.531999 72.8239991,156.202002 73,155.782 C73.1760009,155.361998 73.2839998,154.880003 73.324,154.336 C73.3640002,153.791997 73.384,153.224003 73.384,152.632 C73.384,151.879996 73.3420004,151.242003 73.258,150.718 C73.1739996,150.193997 73.030001,149.768002 72.826,149.44 C72.621999,149.111998 72.3500017,148.874001 72.01,148.726 C71.6699983,148.577999 71.2400026,148.504 70.72,148.504 C70.0879968,148.504 69.5940018,148.629999 69.238,148.882 C68.8819982,149.134001 68.6160009,149.469998 68.44,149.89 C68.2639991,150.310002 68.1560002,150.791997 68.116,151.336 C68.0759998,151.880003 68.056,152.447997 68.056,153.04 L68.056,153.04 Z M69.784,153.412 L69.784,152.488 C69.784,151.943997 69.7979999,151.488002 69.826,151.12 C69.8540001,150.751998 69.9019997,150.458001 69.97,150.238 C70.0380003,150.017999 70.1319994,149.862 70.252,149.77 C70.3720006,149.678 70.527999,149.632 70.72,149.632 C70.9040009,149.632 71.0559994,149.668 71.176,149.74 C71.2960006,149.812 71.3919996,149.945999 71.464,150.142 C71.5360004,150.338001 71.5859999,150.605998 71.614,150.946 C71.6420001,151.286002 71.656,151.723997 71.656,152.26 L71.656,153.184 C71.656,153.728003 71.6420001,154.183998 71.614,154.552 C71.5859999,154.920002 71.5380003,155.213999 71.47,155.434 C71.4019997,155.654001 71.3080006,155.81 71.188,155.902 C71.0679994,155.994 70.912001,156.04 70.72,156.04 C70.5359991,156.04 70.3840006,156.004 70.264,155.932 C70.1439994,155.86 70.0480004,155.726001 69.976,155.53 C69.9039996,155.333999 69.8540001,155.066002 69.826,154.726 C69.7979999,154.385998 69.784,153.948003 69.784,153.412 L69.784,153.412 Z M76.696,153.04 C76.696,153.792004 76.7379996,154.429997 76.822,154.954 C76.9060004,155.478003 77.049999,155.903998 77.254,156.232 C77.458001,156.560002 77.7319983,156.791999 78.076,156.928 C78.4200017,157.064001 78.8479974,157.132 79.36,157.132 C79.9920032,157.132 80.4859982,157.012001 80.842,156.772 C81.1980018,156.531999 81.4639991,156.202002 81.64,155.782 C81.8160009,155.361998 81.9239998,154.880003 81.964,154.336 C82.0040002,153.791997 82.024,153.224003 82.024,152.632 C82.024,151.879996 81.9820004,151.242003 81.898,150.718 C81.8139996,150.193997 81.670001,149.768002 81.466,149.44 C81.261999,149.111998 80.9900017,148.874001 80.65,148.726 C80.3099983,148.577999 79.8800026,148.504 79.36,148.504 C78.7279968,148.504 78.2340018,148.629999 77.878,148.882 C77.5219982,149.134001 77.2560009,149.469998 77.08,149.89 C76.9039991,150.310002 76.7960002,150.791997 76.756,151.336 C76.7159998,151.880003 76.696,152.447997 76.696,153.04 L76.696,153.04 Z M78.424,153.412 L78.424,152.488 C78.424,151.943997 78.4379999,151.488002 78.466,151.12 C78.4940001,150.751998 78.5419997,150.458001 78.61,150.238 C78.6780003,150.017999 78.7719994,149.862 78.892,149.77 C79.0120006,149.678 79.167999,149.632 79.36,149.632 C79.5440009,149.632 79.6959994,149.668 79.816,149.74 C79.9360006,149.812 80.0319996,149.945999 80.104,150.142 C80.1760004,150.338001 80.2259999,150.605998 80.254,150.946 C80.2820001,151.286002 80.296,151.723997 80.296,152.26 L80.296,153.184 C80.296,153.728003 80.2820001,154.183998 80.254,154.552 C80.2259999,154.920002 80.1780003,155.213999 80.11,155.434 C80.0419997,155.654001 79.9480006,155.81 79.828,155.902 C79.7079994,155.994 79.552001,156.04 79.36,156.04 C79.1759991,156.04 79.0240006,156.004 78.904,155.932 C78.7839994,155.86 78.6880004,155.726001 78.616,155.53 C78.5439996,155.333999 78.4940001,155.066002 78.466,154.726 C78.4379999,154.385998 78.424,153.948003 78.424,153.412 L78.424,153.412 Z M85.336,153.04 C85.336,153.792004 85.3779996,154.429997 85.462,154.954 C85.5460004,155.478003 85.689999,155.903998 85.894,156.232 C86.098001,156.560002 86.3719983,156.791999 86.716,156.928 C87.0600017,157.064001 87.4879974,157.132 88,157.132 C88.6320032,157.132 89.1259982,157.012001 89.482,156.772 C89.8380018,156.531999 90.1039991,156.202002 90.28,155.782 C90.4560009,155.361998 90.5639998,154.880003 90.604,154.336 C90.6440002,153.791997 90.664,153.224003 90.664,152.632 C90.664,151.879996 90.6220004,151.242003 90.538,150.718 C90.4539996,150.193997 90.310001,149.768002 90.106,149.44 C89.901999,149.111998 89.6300017,148.874001 89.29,148.726 C88.9499983,148.577999 88.5200026,148.504 88,148.504 C87.3679968,148.504 86.8740018,148.629999 86.518,148.882 C86.1619982,149.134001 85.8960009,149.469998 85.72,149.89 C85.5439991,150.310002 85.4360002,150.791997 85.396,151.336 C85.3559998,151.880003 85.336,152.447997 85.336,153.04 L85.336,153.04 Z M87.064,153.412 L87.064,152.488 C87.064,151.943997 87.0779999,151.488002 87.106,151.12 C87.1340001,150.751998 87.1819997,150.458001 87.25,150.238 C87.3180003,150.017999 87.4119994,149.862 87.532,149.77 C87.6520006,149.678 87.807999,149.632 88,149.632 C88.1840009,149.632 88.3359994,149.668 88.456,149.74 C88.5760006,149.812 88.6719996,149.945999 88.744,150.142 C88.8160004,150.338001 88.8659999,150.605998 88.894,150.946 C88.9220001,151.286002 88.936,151.723997 88.936,152.26 L88.936,153.184 C88.936,153.728003 88.9220001,154.183998 88.894,154.552 C88.8659999,154.920002 88.8180003,155.213999 88.75,155.434 C88.6819997,155.654001 88.5880006,155.81 88.468,155.902 C88.3479994,155.994 88.192001,156.04 88,156.04 C87.8159991,156.04 87.6640006,156.004 87.544,155.932 C87.4239994,155.86 87.3280004,155.726001 87.256,155.53 C87.1839996,155.333999 87.1340001,155.066002 87.106,154.726 C87.0779999,154.385998 87.064,153.948003 87.064,153.412 L87.064,153.412 Z" id="0-0-0-0-0-0-0-0-0" fill="#FFFFFF" sketch:type="MSShapeGroup"></path>
            <path d="M13.882,178.432 L13.882,187 L15.61,187 L15.61,183.376 L16.534,183.376 C16.8940018,183.376 17.1499992,183.471999 17.302,183.664 C17.4540008,183.856001 17.5379999,184.119998 17.554,184.456 L17.602,186.1 C17.61,186.268001 17.6259999,186.429999 17.65,186.586 C17.6740001,186.742001 17.7299996,186.879999 17.818,187 L19.69,187 L19.69,186.928 C19.5299992,186.84 19.4260002,186.676001 19.378,186.436 C19.3459998,186.195999 19.3220001,185.848002 19.306,185.392 C19.298,185.159999 19.29,184.950001 19.282,184.762 C19.274,184.573999 19.2620001,184.400001 19.246,184.24 C19.1979998,183.759998 19.074001,183.412001 18.874,183.196 C18.673999,182.979999 18.3580022,182.84 17.926,182.776 L17.926,182.752 C18.4140024,182.647999 18.7739988,182.414002 19.006,182.05 C19.2380012,181.685998 19.354,181.216003 19.354,180.64 C19.354,179.895996 19.154002,179.342002 18.754,178.978 C18.353998,178.613998 17.7940036,178.432 17.074,178.432 L13.882,178.432 Z M15.61,182.176 L15.61,179.704 L16.426,179.704 C17.226004,179.704 17.626,180.099996 17.626,180.892 C17.626,181.356002 17.5140011,181.685999 17.29,181.882 C17.0659989,182.078001 16.7460021,182.176 16.33,182.176 L15.61,182.176 Z M22.102,182.716 C22.102,182.139997 22.1159999,181.652002 22.144,181.252 C22.1720001,180.851998 22.2279996,180.524001 22.312,180.268 C22.3960004,180.011999 22.5159992,179.826001 22.672,179.71 C22.8280008,179.593999 23.0339987,179.536 23.29,179.536 C23.5460013,179.536 23.7519992,179.593999 23.908,179.71 C24.0640008,179.826001 24.1839996,180.011999 24.268,180.268 C24.3520004,180.524001 24.4079999,180.851998 24.436,181.252 C24.4640001,181.652002 24.478,182.139997 24.478,182.716 C24.478,183.292003 24.4640001,183.781998 24.436,184.186 C24.4079999,184.590002 24.3520004,184.917999 24.268,185.17 C24.1839996,185.422001 24.0640008,185.605999 23.908,185.722 C23.7519992,185.838001 23.5460013,185.896 23.29,185.896 C23.0339987,185.896 22.8280008,185.838001 22.672,185.722 C22.5159992,185.605999 22.3960004,185.422001 22.312,185.17 C22.2279996,184.917999 22.1720001,184.590002 22.144,184.186 C22.1159999,183.781998 22.102,183.292003 22.102,182.716 L22.102,182.716 Z M20.374,182.716 C20.374,183.372003 20.4039997,183.971997 20.464,184.516 C20.5240003,185.060003 20.655999,185.527998 20.86,185.92 C21.064001,186.312002 21.3579981,186.611999 21.742,186.82 C22.1260019,187.028001 22.6419968,187.132 23.29,187.132 C23.9380032,187.132 24.4539981,187.028001 24.838,186.82 C25.2220019,186.611999 25.515999,186.312002 25.72,185.92 C25.924001,185.527998 26.0559997,185.060003 26.116,184.516 C26.1760003,183.971997 26.206,183.372003 26.206,182.716 C26.206,182.067997 26.1760003,181.470003 26.116,180.922 C26.0559997,180.373997 25.924001,179.904002 25.72,179.512 C25.515999,179.119998 25.2220019,178.814001 24.838,178.594 C24.4539981,178.373999 23.9380032,178.264 23.29,178.264 C22.6419968,178.264 22.1260019,178.373999 21.742,178.594 C21.3579981,178.814001 21.064001,179.119998 20.86,179.512 C20.655999,179.904002 20.5240003,180.373997 20.464,180.922 C20.4039997,181.470003 20.374,182.067997 20.374,182.716 L20.374,182.716 Z M28.846,178.432 L27.118,178.432 L27.118,184.408 C27.118,184.984003 27.1939992,185.451998 27.346,185.812 C27.4980008,186.172002 27.7019987,186.449999 27.958,186.646 C28.2140013,186.842001 28.5059984,186.972 28.834,187.036 C29.1620016,187.1 29.5019982,187.132 29.854,187.132 C30.2060018,187.132 30.5459984,187.096 30.874,187.024 C31.2020016,186.952 31.4939987,186.812001 31.75,186.604 C32.0060013,186.395999 32.2099992,186.114002 32.362,185.758 C32.5140008,185.401998 32.59,184.952003 32.59,184.408 L32.59,178.432 L30.862,178.432 L30.862,184.408 C30.862,184.624001 30.8480001,184.821999 30.82,185.002 C30.7919999,185.182001 30.7400004,185.337999 30.664,185.47 C30.5879996,185.602001 30.4860006,185.706 30.358,185.782 C30.2299994,185.858 30.062001,185.896 29.854,185.896 C29.653999,185.896 29.4880007,185.858 29.356,185.782 C29.2239993,185.706 29.1200004,185.602001 29.044,185.47 C28.9679996,185.337999 28.9160001,185.182001 28.888,185.002 C28.8599999,184.821999 28.846,184.624001 28.846,184.408 L28.846,178.432 Z M38.698,178.432 L33.226,178.432 L33.226,179.848 L35.098,179.848 L35.098,187 L36.826,187 L36.826,179.848 L38.698,179.848 L38.698,178.432 Z M39.526,187 L41.254,187 L41.254,178.432 L39.526,178.432 L39.526,187 Z M44.53,178.432 L42.538,178.432 L42.538,187 L44.122,187 L44.122,181 L44.146,181 L46.258,187 L48.226,187 L48.226,178.432 L46.642,178.432 L46.642,184.3 L46.618,184.3 L44.53,178.432 Z M53.23,180.976 L54.886,180.976 C54.886,180.103996 54.6780021,179.434002 54.262,178.966 C53.8459979,178.497998 53.1660047,178.264 52.222,178.264 C51.6699972,178.264 51.2100018,178.355999 50.842,178.54 C50.4739982,178.724001 50.1780011,178.997998 49.954,179.362 C49.7299989,179.726002 49.5720005,180.179997 49.48,180.724 C49.3879995,181.268003 49.342,181.899996 49.342,182.62 C49.342,183.364004 49.3739997,184.017997 49.438,184.582 C49.5020003,185.146003 49.6279991,185.619998 49.816,186.004 C50.0040009,186.388002 50.2639983,186.671999 50.596,186.856 C50.9280017,187.040001 51.3579974,187.132 51.886,187.132 C52.294002,187.132 52.6439985,187.062001 52.936,186.922 C53.2280015,186.781999 53.477999,186.544002 53.686,186.208 L53.71,186.208 L53.71,187 L54.982,187 L54.982,182.38 L52.186,182.38 L52.186,183.652 L53.326,183.652 L53.326,184.528 C53.326,184.760001 53.2900004,184.961999 53.218,185.134 C53.1459996,185.306001 53.0560005,185.447999 52.948,185.56 C52.8399995,185.672001 52.7240006,185.756 52.6,185.812 C52.4759994,185.868 52.3620005,185.896 52.258,185.896 C52.0099988,185.896 51.8080008,185.818001 51.652,185.662 C51.4959992,185.505999 51.3760004,185.282001 51.292,184.99 C51.2079996,184.697999 51.1500002,184.344002 51.118,183.928 C51.0859998,183.511998 51.07,183.048003 51.07,182.536 C51.07,181.463995 51.1619991,180.696002 51.346,180.232 C51.5300009,179.767998 51.8299979,179.536 52.246,179.536 C52.4220009,179.536 52.5719994,179.582 52.696,179.674 C52.8200006,179.766 52.9219996,179.881999 53.002,180.022 C53.0820004,180.162001 53.1399998,180.315999 53.176,180.484 C53.2120002,180.652001 53.23,180.815999 53.23,180.976 L53.23,180.976 Z M60.97,178.432 L58.978,178.432 L58.978,187 L60.562,187 L60.562,181 L60.586,181 L62.698,187 L64.666,187 L64.666,178.432 L63.082,178.432 L63.082,184.3 L63.058,184.3 L60.97,178.432 Z M67.486,178.432 L65.758,178.432 L65.758,184.408 C65.758,184.984003 65.8339992,185.451998 65.986,185.812 C66.1380008,186.172002 66.3419987,186.449999 66.598,186.646 C66.8540013,186.842001 67.1459984,186.972 67.474,187.036 C67.8020016,187.1 68.1419982,187.132 68.494,187.132 C68.8460018,187.132 69.1859984,187.096 69.514,187.024 C69.8420016,186.952 70.1339987,186.812001 70.39,186.604 C70.6460013,186.395999 70.8499992,186.114002 71.002,185.758 C71.1540008,185.401998 71.23,184.952003 71.23,184.408 L71.23,178.432 L69.502,178.432 L69.502,184.408 C69.502,184.624001 69.4880001,184.821999 69.46,185.002 C69.4319999,185.182001 69.3800004,185.337999 69.304,185.47 C69.2279996,185.602001 69.1260006,185.706 68.998,185.782 C68.8699994,185.858 68.702001,185.896 68.494,185.896 C68.293999,185.896 68.1280007,185.858 67.996,185.782 C67.8639993,185.706 67.7600004,185.602001 67.684,185.47 C67.6079996,185.337999 67.5560001,185.182001 67.528,185.002 C67.4999999,184.821999 67.486,184.624001 67.486,184.408 L67.486,178.432 Z M72.358,178.432 L72.358,187 L73.942,187 L73.942,180.16 L73.966,180.16 L75.49,187 L76.834,187 L78.358,180.16 L78.382,180.16 L78.382,187 L79.966,187 L79.966,178.432 L77.41,178.432 L76.174,184.48 L76.15,184.48 L74.926,178.432 L72.358,178.432 Z M82.93,185.728 L82.93,183.148 L83.674,183.148 C83.866001,183.148 84.0419992,183.168 84.202,183.208 C84.3620008,183.248 84.4999994,183.318 84.616,183.418 C84.7320006,183.518001 84.8239997,183.649999 84.892,183.814 C84.9600003,183.978001 84.994,184.183999 84.994,184.432 C84.994,184.928002 84.8660013,185.267999 84.61,185.452 C84.3539987,185.636001 84.0180021,185.728 83.602,185.728 L82.93,185.728 Z M82.93,181.948 L82.93,179.704 L83.554,179.704 C83.9860022,179.704 84.301999,179.787999 84.502,179.956 C84.702001,180.124001 84.802,180.411998 84.802,180.82 C84.802,181.228002 84.6920011,181.517999 84.472,181.69 C84.2519989,181.862001 83.9020024,181.948 83.422,181.948 L82.93,181.948 Z M81.202,178.432 L81.202,187 L84.118,187 C84.6220025,187 85.0439983,186.932001 85.384,186.796 C85.7240017,186.659999 85.9999989,186.478001 86.212,186.25 C86.4240011,186.021999 86.5739996,185.756002 86.662,185.452 C86.7500004,185.147998 86.794,184.828002 86.794,184.492 C86.794,183.915997 86.6540014,183.456002 86.374,183.112 C86.0939986,182.767998 85.7140024,182.564 85.234,182.5 L85.234,182.476 C85.6660022,182.355999 85.9899989,182.130002 86.206,181.798 C86.4220011,181.465998 86.53,181.068002 86.53,180.604 C86.53,180.195998 86.4700006,179.852001 86.35,179.572 C86.2299994,179.291999 86.0620011,179.068001 85.846,178.9 C85.6299989,178.731999 85.3720015,178.612 85.072,178.54 C84.7719985,178.468 84.4460018,178.432 84.094,178.432 L81.202,178.432 Z M92.662,178.432 L87.874,178.432 L87.874,187 L92.782,187 L92.782,185.584 L89.602,185.584 L89.602,183.28 L92.482,183.28 L92.482,181.864 L89.602,181.864 L89.602,179.848 L92.662,179.848 L92.662,178.432 Z M93.646,178.432 L93.646,187 L95.374,187 L95.374,183.376 L96.298,183.376 C96.6580018,183.376 96.9139992,183.471999 97.066,183.664 C97.2180008,183.856001 97.3019999,184.119998 97.318,184.456 L97.366,186.1 C97.374,186.268001 97.3899999,186.429999 97.414,186.586 C97.4380001,186.742001 97.4939996,186.879999 97.582,187 L99.454,187 L99.454,186.928 C99.2939992,186.84 99.1900002,186.676001 99.142,186.436 C99.1099998,186.195999 99.0860001,185.848002 99.07,185.392 C99.062,185.159999 99.054,184.950001 99.046,184.762 C99.038,184.573999 99.0260001,184.400001 99.01,184.24 C98.9619998,183.759998 98.838001,183.412001 98.638,183.196 C98.437999,182.979999 98.1220022,182.84 97.69,182.776 L97.69,182.752 C98.1780024,182.647999 98.5379988,182.414002 98.77,182.05 C99.0020012,181.685998 99.118,181.216003 99.118,180.64 C99.118,179.895996 98.918002,179.342002 98.518,178.978 C98.117998,178.613998 97.5580036,178.432 96.838,178.432 L93.646,178.432 Z M95.374,182.176 L95.374,179.704 L96.19,179.704 C96.990004,179.704 97.39,180.099996 97.39,180.892 C97.39,181.356002 97.2780011,181.685999 97.054,181.882 C96.8299989,182.078001 96.5100021,182.176 96.094,182.176 L95.374,182.176 Z" id="ROUTING-NUMBER" fill="#6B737B" sketch:type="MSShapeGroup"></path>
            <path d="M16.992,193.432 L15.72,193.432 C15.119997,194.376005 14.6900013,195.297995 14.43,196.198 C14.1699987,197.098004 14.04,197.971996 14.04,198.82 C14.04,199.668004 14.1699987,200.535996 14.43,201.424 C14.6900013,202.312004 15.119997,203.227995 15.72,204.172 L16.992,204.172 C16.7439988,203.715998 16.5320009,203.274002 16.356,202.846 C16.1799991,202.417998 16.0380005,201.994002 15.93,201.574 C15.8219995,201.153998 15.7440002,200.718002 15.696,200.266 C15.6479998,199.813998 15.624,199.332003 15.624,198.82 C15.624,198.307997 15.6479998,197.826002 15.696,197.374 C15.7440002,196.921998 15.8219995,196.480002 15.93,196.048 C16.0380005,195.615998 16.1799991,195.186002 16.356,194.758 C16.5320009,194.329998 16.7439988,193.888002 16.992,193.432 L16.992,193.432 Z M21.168,198.772 L20.34,194.92 L20.316,194.92 L19.488,198.772 L21.168,198.772 Z M21.396,193.432 L23.664,202 L21.864,202 L21.468,200.188 L19.188,200.188 L18.792,202 L16.992,202 L19.26,193.432 L21.396,193.432 Z M25.992,200.728 L25.992,198.148 L26.736,198.148 C26.928001,198.148 27.1039992,198.168 27.264,198.208 C27.4240008,198.248 27.5619994,198.317999 27.678,198.418 C27.7940006,198.518 27.8859997,198.649999 27.954,198.814 C28.0220003,198.978001 28.056,199.183999 28.056,199.432 C28.056,199.928002 27.9280013,200.267999 27.672,200.452 C27.4159987,200.636001 27.0800021,200.728 26.664,200.728 L25.992,200.728 Z M25.992,196.948 L25.992,194.704 L26.616,194.704 C27.0480022,194.704 27.363999,194.787999 27.564,194.956 C27.764001,195.124001 27.864,195.411998 27.864,195.82 C27.864,196.228002 27.7540011,196.517999 27.534,196.69 C27.3139989,196.862001 26.9640024,196.948 26.484,196.948 L25.992,196.948 Z M24.264,193.432 L24.264,202 L27.18,202 C27.6840025,202 28.1059983,201.932001 28.446,201.796 C28.7860017,201.659999 29.0619989,201.478001 29.274,201.25 C29.4860011,201.021999 29.6359996,200.756002 29.724,200.452 C29.8120004,200.147998 29.856,199.828002 29.856,199.492 C29.856,198.915997 29.7160014,198.456002 29.436,198.112 C29.1559986,197.767998 28.7760024,197.564 28.296,197.5 L28.296,197.476 C28.7280022,197.355999 29.0519989,197.130002 29.268,196.798 C29.4840011,196.465998 29.592,196.068002 29.592,195.604 C29.592,195.195998 29.5320006,194.852001 29.412,194.572 C29.2919994,194.291999 29.1240011,194.068001 28.908,193.9 C28.6919989,193.731999 28.4340015,193.612 28.134,193.54 C27.8339985,193.468 27.5080018,193.432 27.156,193.432 L24.264,193.432 Z M34.512,198.772 L33.684,194.92 L33.66,194.92 L32.832,198.772 L34.512,198.772 Z M34.74,193.432 L37.008,202 L35.208,202 L34.812,200.188 L32.532,200.188 L32.136,202 L30.336,202 L32.604,193.432 L34.74,193.432 Z M38.28,193.432 L37.008,193.432 C37.2560012,193.888002 37.4679991,194.329998 37.644,194.758 C37.8200009,195.186002 37.9619995,195.615998 38.07,196.048 C38.1780005,196.480002 38.2559998,196.921998 38.304,197.374 C38.3520002,197.826002 38.376,198.307997 38.376,198.82 C38.376,199.332003 38.3520002,199.813998 38.304,200.266 C38.2559998,200.718002 38.1780005,201.153998 38.07,201.574 C37.9619995,201.994002 37.8200009,202.417998 37.644,202.846 C37.4679991,203.274002 37.2560012,203.715998 37.008,204.172 L38.28,204.172 C38.880003,203.227995 39.3099987,202.312004 39.57,201.424 C39.8300013,200.535996 39.96,199.668004 39.96,198.82 C39.96,197.971996 39.8300013,197.098004 39.57,196.198 C39.3099987,195.297995 38.880003,194.376005 38.28,193.432 L38.28,193.432 Z" id="(ABA)" fill="#FF805D" sketch:type="MSShapeGroup"></path>
            <path d="M126.776,193.432 L125.504,193.432 C124.903997,194.376005 124.474001,195.297995 124.214,196.198 C123.953999,197.098004 123.824,197.971996 123.824,198.82 C123.824,199.668004 123.953999,200.535996 124.214,201.424 C124.474001,202.312004 124.903997,203.227995 125.504,204.172 L126.776,204.172 C126.527999,203.715998 126.316001,203.274002 126.14,202.846 C125.963999,202.417998 125.822001,201.994002 125.714,201.574 C125.605999,201.153998 125.528,200.718002 125.48,200.266 C125.432,199.813998 125.408,199.332003 125.408,198.82 C125.408,198.307997 125.432,197.826002 125.48,197.374 C125.528,196.921998 125.605999,196.480002 125.714,196.048 C125.822001,195.615998 125.963999,195.186002 126.14,194.758 C126.316001,194.329998 126.527999,193.888002 126.776,193.432 L126.776,193.432 Z M129.188,200.728 L129.188,194.704 L129.92,194.704 C130.248002,194.704 130.509999,194.765999 130.706,194.89 C130.902001,195.014001 131.049999,195.197999 131.15,195.442 C131.25,195.686001 131.316,195.991998 131.348,196.36 C131.38,196.728002 131.396,197.155998 131.396,197.644 C131.396,198.228003 131.378,198.715998 131.342,199.108 C131.306,199.500002 131.234001,199.815999 131.126,200.056 C131.017999,200.296001 130.872001,200.467999 130.688,200.572 C130.503999,200.676001 130.260002,200.728 129.956,200.728 L129.188,200.728 Z M127.46,193.432 L127.46,202 L130.184,202 C130.760003,202 131.235998,201.912001 131.612,201.736 C131.988002,201.559999 132.287999,201.292002 132.512,200.932 C132.736001,200.571998 132.894,200.114003 132.986,199.558 C133.078,199.001997 133.124,198.348004 133.124,197.596 C133.124,196.963997 133.088,196.392003 133.016,195.88 C132.944,195.367997 132.806001,194.930002 132.602,194.566 C132.397999,194.201998 132.112002,193.922001 131.744,193.726 C131.375998,193.529999 130.892003,193.432 130.292,193.432 L127.46,193.432 Z M136.076,200.728 L136.076,194.704 L136.808,194.704 C137.136002,194.704 137.397999,194.765999 137.594,194.89 C137.790001,195.014001 137.937999,195.197999 138.038,195.442 C138.138,195.686001 138.204,195.991998 138.236,196.36 C138.268,196.728002 138.284,197.155998 138.284,197.644 C138.284,198.228003 138.266,198.715998 138.23,199.108 C138.194,199.500002 138.122001,199.815999 138.014,200.056 C137.905999,200.296001 137.760001,200.467999 137.576,200.572 C137.391999,200.676001 137.148002,200.728 136.844,200.728 L136.076,200.728 Z M134.348,193.432 L134.348,202 L137.072,202 C137.648003,202 138.123998,201.912001 138.5,201.736 C138.876002,201.559999 139.175999,201.292002 139.4,200.932 C139.624001,200.571998 139.782,200.114003 139.874,199.558 C139.966,199.001997 140.012,198.348004 140.012,197.596 C140.012,196.963997 139.976,196.392003 139.904,195.88 C139.832,195.367997 139.694001,194.930002 139.49,194.566 C139.285999,194.201998 139.000002,193.922001 138.632,193.726 C138.263998,193.529999 137.780003,193.432 137.18,193.432 L134.348,193.432 Z M144.728,198.772 L143.9,194.92 L143.876,194.92 L143.048,198.772 L144.728,198.772 Z M144.956,193.432 L147.224,202 L145.424,202 L145.028,200.188 L142.748,200.188 L142.352,202 L140.552,202 L142.82,193.432 L144.956,193.432 Z M148.496,193.432 L147.224,193.432 C147.472001,193.888002 147.683999,194.329998 147.86,194.758 C148.036001,195.186002 148.177999,195.615998 148.286,196.048 C148.394001,196.480002 148.472,196.921998 148.52,197.374 C148.568,197.826002 148.592,198.307997 148.592,198.82 C148.592,199.332003 148.568,199.813998 148.52,200.266 C148.472,200.718002 148.394001,201.153998 148.286,201.574 C148.177999,201.994002 148.036001,202.417998 147.86,202.846 C147.683999,203.274002 147.472001,203.715998 147.224,204.172 L148.496,204.172 C149.096003,203.227995 149.525999,202.312004 149.786,201.424 C150.046001,200.535996 150.176,199.668004 150.176,198.82 C150.176,197.971996 150.046001,197.098004 149.786,196.198 C149.525999,195.297995 149.096003,194.376005 148.496,193.432 L148.496,193.432 Z" id="(DDA)" fill="#FF805D" sketch:type="MSShapeGroup"></path>
            <path d="M126.216,153.04 C126.216,153.792004 126.258,154.429997 126.342,154.954 C126.426,155.478003 126.569999,155.903998 126.774,156.232 C126.978001,156.560002 127.251998,156.791999 127.596,156.928 C127.940002,157.064001 128.367997,157.132 128.88,157.132 C129.512003,157.132 130.005998,157.012001 130.362,156.772 C130.718002,156.531999 130.983999,156.202002 131.16,155.782 C131.336001,155.361998 131.444,154.880003 131.484,154.336 C131.524,153.791997 131.544,153.224003 131.544,152.632 C131.544,151.879996 131.502,151.242003 131.418,150.718 C131.334,150.193997 131.190001,149.768002 130.986,149.44 C130.781999,149.111998 130.510002,148.874001 130.17,148.726 C129.829998,148.577999 129.400003,148.504 128.88,148.504 C128.247997,148.504 127.754002,148.629999 127.398,148.882 C127.041998,149.134001 126.776001,149.469998 126.6,149.89 C126.423999,150.310002 126.316,150.791997 126.276,151.336 C126.236,151.880003 126.216,152.447997 126.216,153.04 L126.216,153.04 Z M127.944,153.412 L127.944,152.488 C127.944,151.943997 127.958,151.488002 127.986,151.12 C128.014,150.751998 128.062,150.458001 128.13,150.238 C128.198,150.017999 128.291999,149.862 128.412,149.77 C128.532001,149.678 128.687999,149.632 128.88,149.632 C129.064001,149.632 129.215999,149.668 129.336,149.74 C129.456001,149.812 129.552,149.945999 129.624,150.142 C129.696,150.338001 129.746,150.605998 129.774,150.946 C129.802,151.286002 129.816,151.723997 129.816,152.26 L129.816,153.184 C129.816,153.728003 129.802,154.183998 129.774,154.552 C129.746,154.920002 129.698,155.213999 129.63,155.434 C129.562,155.654001 129.468001,155.81 129.348,155.902 C129.227999,155.994 129.072001,156.04 128.88,156.04 C128.695999,156.04 128.544001,156.004 128.424,155.932 C128.303999,155.86 128.208,155.726001 128.136,155.53 C128.064,155.333999 128.014,155.066002 127.986,154.726 C127.958,154.385998 127.944,153.948003 127.944,153.412 L127.944,153.412 Z M134.856,153.04 C134.856,153.792004 134.898,154.429997 134.982,154.954 C135.066,155.478003 135.209999,155.903998 135.414,156.232 C135.618001,156.560002 135.891998,156.791999 136.236,156.928 C136.580002,157.064001 137.007997,157.132 137.52,157.132 C138.152003,157.132 138.645998,157.012001 139.002,156.772 C139.358002,156.531999 139.623999,156.202002 139.8,155.782 C139.976001,155.361998 140.084,154.880003 140.124,154.336 C140.164,153.791997 140.184,153.224003 140.184,152.632 C140.184,151.879996 140.142,151.242003 140.058,150.718 C139.974,150.193997 139.830001,149.768002 139.626,149.44 C139.421999,149.111998 139.150002,148.874001 138.81,148.726 C138.469998,148.577999 138.040003,148.504 137.52,148.504 C136.887997,148.504 136.394002,148.629999 136.038,148.882 C135.681998,149.134001 135.416001,149.469998 135.24,149.89 C135.063999,150.310002 134.956,150.791997 134.916,151.336 C134.876,151.880003 134.856,152.447997 134.856,153.04 L134.856,153.04 Z M136.584,153.412 L136.584,152.488 C136.584,151.943997 136.598,151.488002 136.626,151.12 C136.654,150.751998 136.702,150.458001 136.77,150.238 C136.838,150.017999 136.931999,149.862 137.052,149.77 C137.172001,149.678 137.327999,149.632 137.52,149.632 C137.704001,149.632 137.855999,149.668 137.976,149.74 C138.096001,149.812 138.192,149.945999 138.264,150.142 C138.336,150.338001 138.386,150.605998 138.414,150.946 C138.442,151.286002 138.456,151.723997 138.456,152.26 L138.456,153.184 C138.456,153.728003 138.442,154.183998 138.414,154.552 C138.386,154.920002 138.338,155.213999 138.27,155.434 C138.202,155.654001 138.108001,155.81 137.988,155.902 C137.867999,155.994 137.712001,156.04 137.52,156.04 C137.335999,156.04 137.184001,156.004 137.064,155.932 C136.943999,155.86 136.848,155.726001 136.776,155.53 C136.704,155.333999 136.654,155.066002 136.626,154.726 C136.598,154.385998 136.584,153.948003 136.584,153.412 L136.584,153.412 Z M143.496,153.04 C143.496,153.792004 143.538,154.429997 143.622,154.954 C143.706,155.478003 143.849999,155.903998 144.054,156.232 C144.258001,156.560002 144.531998,156.791999 144.876,156.928 C145.220002,157.064001 145.647997,157.132 146.16,157.132 C146.792003,157.132 147.285998,157.012001 147.642,156.772 C147.998002,156.531999 148.263999,156.202002 148.44,155.782 C148.616001,155.361998 148.724,154.880003 148.764,154.336 C148.804,153.791997 148.824,153.224003 148.824,152.632 C148.824,151.879996 148.782,151.242003 148.698,150.718 C148.614,150.193997 148.470001,149.768002 148.266,149.44 C148.061999,149.111998 147.790002,148.874001 147.45,148.726 C147.109998,148.577999 146.680003,148.504 146.16,148.504 C145.527997,148.504 145.034002,148.629999 144.678,148.882 C144.321998,149.134001 144.056001,149.469998 143.88,149.89 C143.703999,150.310002 143.596,150.791997 143.556,151.336 C143.516,151.880003 143.496,152.447997 143.496,153.04 L143.496,153.04 Z M145.224,153.412 L145.224,152.488 C145.224,151.943997 145.238,151.488002 145.266,151.12 C145.294,150.751998 145.342,150.458001 145.41,150.238 C145.478,150.017999 145.571999,149.862 145.692,149.77 C145.812001,149.678 145.967999,149.632 146.16,149.632 C146.344001,149.632 146.495999,149.668 146.616,149.74 C146.736001,149.812 146.832,149.945999 146.904,150.142 C146.976,150.338001 147.026,150.605998 147.054,150.946 C147.082,151.286002 147.096,151.723997 147.096,152.26 L147.096,153.184 C147.096,153.728003 147.082,154.183998 147.054,154.552 C147.026,154.920002 146.978,155.213999 146.91,155.434 C146.842,155.654001 146.748001,155.81 146.628,155.902 C146.507999,155.994 146.352001,156.04 146.16,156.04 C145.975999,156.04 145.824001,156.004 145.704,155.932 C145.583999,155.86 145.488,155.726001 145.416,155.53 C145.344,155.333999 145.294,155.066002 145.266,154.726 C145.238,154.385998 145.224,153.948003 145.224,153.412 L145.224,153.412 Z M152.136,153.04 C152.136,153.792004 152.178,154.429997 152.262,154.954 C152.346,155.478003 152.489999,155.903998 152.694,156.232 C152.898001,156.560002 153.171998,156.791999 153.516,156.928 C153.860002,157.064001 154.287997,157.132 154.8,157.132 C155.432003,157.132 155.925998,157.012001 156.282,156.772 C156.638002,156.531999 156.903999,156.202002 157.08,155.782 C157.256001,155.361998 157.364,154.880003 157.404,154.336 C157.444,153.791997 157.464,153.224003 157.464,152.632 C157.464,151.879996 157.422,151.242003 157.338,150.718 C157.254,150.193997 157.110001,149.768002 156.906,149.44 C156.701999,149.111998 156.430002,148.874001 156.09,148.726 C155.749998,148.577999 155.320003,148.504 154.8,148.504 C154.167997,148.504 153.674002,148.629999 153.318,148.882 C152.961998,149.134001 152.696001,149.469998 152.52,149.89 C152.343999,150.310002 152.236,150.791997 152.196,151.336 C152.156,151.880003 152.136,152.447997 152.136,153.04 L152.136,153.04 Z M153.864,153.412 L153.864,152.488 C153.864,151.943997 153.878,151.488002 153.906,151.12 C153.934,150.751998 153.982,150.458001 154.05,150.238 C154.118,150.017999 154.211999,149.862 154.332,149.77 C154.452001,149.678 154.607999,149.632 154.8,149.632 C154.984001,149.632 155.135999,149.668 155.256,149.74 C155.376001,149.812 155.472,149.945999 155.544,150.142 C155.616,150.338001 155.666,150.605998 155.694,150.946 C155.722,151.286002 155.736,151.723997 155.736,152.26 L155.736,153.184 C155.736,153.728003 155.722,154.183998 155.694,154.552 C155.666,154.920002 155.618,155.213999 155.55,155.434 C155.482,155.654001 155.388001,155.81 155.268,155.902 C155.147999,155.994 154.992001,156.04 154.8,156.04 C154.615999,156.04 154.464001,156.004 154.344,155.932 C154.223999,155.86 154.128,155.726001 154.056,155.53 C153.984,155.333999 153.934,155.066002 153.906,154.726 C153.878,154.385998 153.864,153.948003 153.864,153.412 L153.864,153.412 Z M160.776,153.04 C160.776,153.792004 160.818,154.429997 160.902,154.954 C160.986,155.478003 161.129999,155.903998 161.334,156.232 C161.538001,156.560002 161.811998,156.791999 162.156,156.928 C162.500002,157.064001 162.927997,157.132 163.44,157.132 C164.072003,157.132 164.565998,157.012001 164.922,156.772 C165.278002,156.531999 165.543999,156.202002 165.72,155.782 C165.896001,155.361998 166.004,154.880003 166.044,154.336 C166.084,153.791997 166.104,153.224003 166.104,152.632 C166.104,151.879996 166.062,151.242003 165.978,150.718 C165.894,150.193997 165.750001,149.768002 165.546,149.44 C165.341999,149.111998 165.070002,148.874001 164.73,148.726 C164.389998,148.577999 163.960003,148.504 163.44,148.504 C162.807997,148.504 162.314002,148.629999 161.958,148.882 C161.601998,149.134001 161.336001,149.469998 161.16,149.89 C160.983999,150.310002 160.876,150.791997 160.836,151.336 C160.796,151.880003 160.776,152.447997 160.776,153.04 L160.776,153.04 Z M162.504,153.412 L162.504,152.488 C162.504,151.943997 162.518,151.488002 162.546,151.12 C162.574,150.751998 162.622,150.458001 162.69,150.238 C162.758,150.017999 162.851999,149.862 162.972,149.77 C163.092001,149.678 163.247999,149.632 163.44,149.632 C163.624001,149.632 163.775999,149.668 163.896,149.74 C164.016001,149.812 164.112,149.945999 164.184,150.142 C164.256,150.338001 164.306,150.605998 164.334,150.946 C164.362,151.286002 164.376,151.723997 164.376,152.26 L164.376,153.184 C164.376,153.728003 164.362,154.183998 164.334,154.552 C164.306,154.920002 164.258,155.213999 164.19,155.434 C164.122,155.654001 164.028001,155.81 163.908,155.902 C163.787999,155.994 163.632001,156.04 163.44,156.04 C163.255999,156.04 163.104001,156.004 162.984,155.932 C162.863999,155.86 162.768,155.726001 162.696,155.53 C162.624,155.333999 162.574,155.066002 162.546,154.726 C162.518,154.385998 162.504,153.948003 162.504,153.412 L162.504,153.412 Z M169.416,153.04 C169.416,153.792004 169.458,154.429997 169.542,154.954 C169.626,155.478003 169.769999,155.903998 169.974,156.232 C170.178001,156.560002 170.451998,156.791999 170.796,156.928 C171.140002,157.064001 171.567997,157.132 172.08,157.132 C172.712003,157.132 173.205998,157.012001 173.562,156.772 C173.918002,156.531999 174.183999,156.202002 174.36,155.782 C174.536001,155.361998 174.644,154.880003 174.684,154.336 C174.724,153.791997 174.744,153.224003 174.744,152.632 C174.744,151.879996 174.702,151.242003 174.618,150.718 C174.534,150.193997 174.390001,149.768002 174.186,149.44 C173.981999,149.111998 173.710002,148.874001 173.37,148.726 C173.029998,148.577999 172.600003,148.504 172.08,148.504 C171.447997,148.504 170.954002,148.629999 170.598,148.882 C170.241998,149.134001 169.976001,149.469998 169.8,149.89 C169.623999,150.310002 169.516,150.791997 169.476,151.336 C169.436,151.880003 169.416,152.447997 169.416,153.04 L169.416,153.04 Z M171.144,153.412 L171.144,152.488 C171.144,151.943997 171.158,151.488002 171.186,151.12 C171.214,150.751998 171.262,150.458001 171.33,150.238 C171.398,150.017999 171.491999,149.862 171.612,149.77 C171.732001,149.678 171.887999,149.632 172.08,149.632 C172.264001,149.632 172.415999,149.668 172.536,149.74 C172.656001,149.812 172.752,149.945999 172.824,150.142 C172.896,150.338001 172.946,150.605998 172.974,150.946 C173.002,151.286002 173.016,151.723997 173.016,152.26 L173.016,153.184 C173.016,153.728003 173.002,154.183998 172.974,154.552 C172.946,154.920002 172.898,155.213999 172.83,155.434 C172.762,155.654001 172.668001,155.81 172.548,155.902 C172.427999,155.994 172.272001,156.04 172.08,156.04 C171.895999,156.04 171.744001,156.004 171.624,155.932 C171.503999,155.86 171.408,155.726001 171.336,155.53 C171.264,155.333999 171.214,155.066002 171.186,154.726 C171.158,154.385998 171.144,153.948003 171.144,153.412 L171.144,153.412 Z M178.056,153.04 C178.056,153.792004 178.098,154.429997 178.182,154.954 C178.266,155.478003 178.409999,155.903998 178.614,156.232 C178.818001,156.560002 179.091998,156.791999 179.436,156.928 C179.780002,157.064001 180.207997,157.132 180.72,157.132 C181.352003,157.132 181.845998,157.012001 182.202,156.772 C182.558002,156.531999 182.823999,156.202002 183,155.782 C183.176001,155.361998 183.284,154.880003 183.324,154.336 C183.364,153.791997 183.384,153.224003 183.384,152.632 C183.384,151.879996 183.342,151.242003 183.258,150.718 C183.174,150.193997 183.030001,149.768002 182.826,149.44 C182.621999,149.111998 182.350002,148.874001 182.01,148.726 C181.669998,148.577999 181.240003,148.504 180.72,148.504 C180.087997,148.504 179.594002,148.629999 179.238,148.882 C178.881998,149.134001 178.616001,149.469998 178.44,149.89 C178.263999,150.310002 178.156,150.791997 178.116,151.336 C178.076,151.880003 178.056,152.447997 178.056,153.04 L178.056,153.04 Z M179.784,153.412 L179.784,152.488 C179.784,151.943997 179.798,151.488002 179.826,151.12 C179.854,150.751998 179.902,150.458001 179.97,150.238 C180.038,150.017999 180.131999,149.862 180.252,149.77 C180.372001,149.678 180.527999,149.632 180.72,149.632 C180.904001,149.632 181.055999,149.668 181.176,149.74 C181.296001,149.812 181.392,149.945999 181.464,150.142 C181.536,150.338001 181.586,150.605998 181.614,150.946 C181.642,151.286002 181.656,151.723997 181.656,152.26 L181.656,153.184 C181.656,153.728003 181.642,154.183998 181.614,154.552 C181.586,154.920002 181.538,155.213999 181.47,155.434 C181.402,155.654001 181.308001,155.81 181.188,155.902 C181.067999,155.994 180.912001,156.04 180.72,156.04 C180.535999,156.04 180.384001,156.004 180.264,155.932 C180.143999,155.86 180.048,155.726001 179.976,155.53 C179.904,155.333999 179.854,155.066002 179.826,154.726 C179.798,154.385998 179.784,153.948003 179.784,153.412 L179.784,153.412 Z" id="0-0-0-0-0-0-0" fill="#FFFFFF" sketch:type="MSShapeGroup"></path>
            <path d="M216.216,153.04 C216.216,153.792004 216.258,154.429997 216.342,154.954 C216.426,155.478003 216.569999,155.903998 216.774,156.232 C216.978001,156.560002 217.251998,156.791999 217.596,156.928 C217.940002,157.064001 218.367997,157.132 218.88,157.132 C219.512003,157.132 220.005998,157.012001 220.362,156.772 C220.718002,156.531999 220.983999,156.202002 221.16,155.782 C221.336001,155.361998 221.444,154.880003 221.484,154.336 C221.524,153.791997 221.544,153.224003 221.544,152.632 C221.544,151.879996 221.502,151.242003 221.418,150.718 C221.334,150.193997 221.190001,149.768002 220.986,149.44 C220.781999,149.111998 220.510002,148.874001 220.17,148.726 C219.829998,148.577999 219.400003,148.504 218.88,148.504 C218.247997,148.504 217.754002,148.629999 217.398,148.882 C217.041998,149.134001 216.776001,149.469998 216.6,149.89 C216.423999,150.310002 216.316,150.791997 216.276,151.336 C216.236,151.880003 216.216,152.447997 216.216,153.04 L216.216,153.04 Z M217.944,153.412 L217.944,152.488 C217.944,151.943997 217.958,151.488002 217.986,151.12 C218.014,150.751998 218.062,150.458001 218.13,150.238 C218.198,150.017999 218.291999,149.862 218.412,149.77 C218.532001,149.678 218.687999,149.632 218.88,149.632 C219.064001,149.632 219.215999,149.668 219.336,149.74 C219.456001,149.812 219.552,149.945999 219.624,150.142 C219.696,150.338001 219.746,150.605998 219.774,150.946 C219.802,151.286002 219.816,151.723997 219.816,152.26 L219.816,153.184 C219.816,153.728003 219.802,154.183998 219.774,154.552 C219.746,154.920002 219.698,155.213999 219.63,155.434 C219.562,155.654001 219.468001,155.81 219.348,155.902 C219.227999,155.994 219.072001,156.04 218.88,156.04 C218.695999,156.04 218.544001,156.004 218.424,155.932 C218.303999,155.86 218.208,155.726001 218.136,155.53 C218.064,155.333999 218.014,155.066002 217.986,154.726 C217.958,154.385998 217.944,153.948003 217.944,153.412 L217.944,153.412 Z M224.856,153.04 C224.856,153.792004 224.898,154.429997 224.982,154.954 C225.066,155.478003 225.209999,155.903998 225.414,156.232 C225.618001,156.560002 225.891998,156.791999 226.236,156.928 C226.580002,157.064001 227.007997,157.132 227.52,157.132 C228.152003,157.132 228.645998,157.012001 229.002,156.772 C229.358002,156.531999 229.623999,156.202002 229.8,155.782 C229.976001,155.361998 230.084,154.880003 230.124,154.336 C230.164,153.791997 230.184,153.224003 230.184,152.632 C230.184,151.879996 230.142,151.242003 230.058,150.718 C229.974,150.193997 229.830001,149.768002 229.626,149.44 C229.421999,149.111998 229.150002,148.874001 228.81,148.726 C228.469998,148.577999 228.040003,148.504 227.52,148.504 C226.887997,148.504 226.394002,148.629999 226.038,148.882 C225.681998,149.134001 225.416001,149.469998 225.24,149.89 C225.063999,150.310002 224.956,150.791997 224.916,151.336 C224.876,151.880003 224.856,152.447997 224.856,153.04 L224.856,153.04 Z M226.584,153.412 L226.584,152.488 C226.584,151.943997 226.598,151.488002 226.626,151.12 C226.654,150.751998 226.702,150.458001 226.77,150.238 C226.838,150.017999 226.931999,149.862 227.052,149.77 C227.172001,149.678 227.327999,149.632 227.52,149.632 C227.704001,149.632 227.855999,149.668 227.976,149.74 C228.096001,149.812 228.192,149.945999 228.264,150.142 C228.336,150.338001 228.386,150.605998 228.414,150.946 C228.442,151.286002 228.456,151.723997 228.456,152.26 L228.456,153.184 C228.456,153.728003 228.442,154.183998 228.414,154.552 C228.386,154.920002 228.338,155.213999 228.27,155.434 C228.202,155.654001 228.108001,155.81 227.988,155.902 C227.867999,155.994 227.712001,156.04 227.52,156.04 C227.335999,156.04 227.184001,156.004 227.064,155.932 C226.943999,155.86 226.848,155.726001 226.776,155.53 C226.704,155.333999 226.654,155.066002 226.626,154.726 C226.598,154.385998 226.584,153.948003 226.584,153.412 L226.584,153.412 Z M233.496,153.04 C233.496,153.792004 233.538,154.429997 233.622,154.954 C233.706,155.478003 233.849999,155.903998 234.054,156.232 C234.258001,156.560002 234.531998,156.791999 234.876,156.928 C235.220002,157.064001 235.647997,157.132 236.16,157.132 C236.792003,157.132 237.285998,157.012001 237.642,156.772 C237.998002,156.531999 238.263999,156.202002 238.44,155.782 C238.616001,155.361998 238.724,154.880003 238.764,154.336 C238.804,153.791997 238.824,153.224003 238.824,152.632 C238.824,151.879996 238.782,151.242003 238.698,150.718 C238.614,150.193997 238.470001,149.768002 238.266,149.44 C238.061999,149.111998 237.790002,148.874001 237.45,148.726 C237.109998,148.577999 236.680003,148.504 236.16,148.504 C235.527997,148.504 235.034002,148.629999 234.678,148.882 C234.321998,149.134001 234.056001,149.469998 233.88,149.89 C233.703999,150.310002 233.596,150.791997 233.556,151.336 C233.516,151.880003 233.496,152.447997 233.496,153.04 L233.496,153.04 Z M235.224,153.412 L235.224,152.488 C235.224,151.943997 235.238,151.488002 235.266,151.12 C235.294,150.751998 235.342,150.458001 235.41,150.238 C235.478,150.017999 235.571999,149.862 235.692,149.77 C235.812001,149.678 235.967999,149.632 236.16,149.632 C236.344001,149.632 236.495999,149.668 236.616,149.74 C236.736001,149.812 236.832,149.945999 236.904,150.142 C236.976,150.338001 237.026,150.605998 237.054,150.946 C237.082,151.286002 237.096,151.723997 237.096,152.26 L237.096,153.184 C237.096,153.728003 237.082,154.183998 237.054,154.552 C237.026,154.920002 236.978,155.213999 236.91,155.434 C236.842,155.654001 236.748001,155.81 236.628,155.902 C236.507999,155.994 236.352001,156.04 236.16,156.04 C235.975999,156.04 235.824001,156.004 235.704,155.932 C235.583999,155.86 235.488,155.726001 235.416,155.53 C235.344,155.333999 235.294,155.066002 235.266,154.726 C235.238,154.385998 235.224,153.948003 235.224,153.412 L235.224,153.412 Z M242.136,153.04 C242.136,153.792004 242.178,154.429997 242.262,154.954 C242.346,155.478003 242.489999,155.903998 242.694,156.232 C242.898001,156.560002 243.171998,156.791999 243.516,156.928 C243.860002,157.064001 244.287997,157.132 244.8,157.132 C245.432003,157.132 245.925998,157.012001 246.282,156.772 C246.638002,156.531999 246.903999,156.202002 247.08,155.782 C247.256001,155.361998 247.364,154.880003 247.404,154.336 C247.444,153.791997 247.464,153.224003 247.464,152.632 C247.464,151.879996 247.422,151.242003 247.338,150.718 C247.254,150.193997 247.110001,149.768002 246.906,149.44 C246.701999,149.111998 246.430002,148.874001 246.09,148.726 C245.749998,148.577999 245.320003,148.504 244.8,148.504 C244.167997,148.504 243.674002,148.629999 243.318,148.882 C242.961998,149.134001 242.696001,149.469998 242.52,149.89 C242.343999,150.310002 242.236,150.791997 242.196,151.336 C242.156,151.880003 242.136,152.447997 242.136,153.04 L242.136,153.04 Z M243.864,153.412 L243.864,152.488 C243.864,151.943997 243.878,151.488002 243.906,151.12 C243.934,150.751998 243.982,150.458001 244.05,150.238 C244.118,150.017999 244.211999,149.862 244.332,149.77 C244.452001,149.678 244.607999,149.632 244.8,149.632 C244.984001,149.632 245.135999,149.668 245.256,149.74 C245.376001,149.812 245.472,149.945999 245.544,150.142 C245.616,150.338001 245.666,150.605998 245.694,150.946 C245.722,151.286002 245.736,151.723997 245.736,152.26 L245.736,153.184 C245.736,153.728003 245.722,154.183998 245.694,154.552 C245.666,154.920002 245.618,155.213999 245.55,155.434 C245.482,155.654001 245.388001,155.81 245.268,155.902 C245.147999,155.994 244.992001,156.04 244.8,156.04 C244.615999,156.04 244.464001,156.004 244.344,155.932 C244.223999,155.86 244.128,155.726001 244.056,155.53 C243.984,155.333999 243.934,155.066002 243.906,154.726 C243.878,154.385998 243.864,153.948003 243.864,153.412 L243.864,153.412 Z" id="0-0-0-0" fill="#FFFFFF" sketch:type="MSShapeGroup"></path>
            <path d="M264.96,87.132 L264.96,88.176 L265.728,88.176 L265.728,87.132 C266.520004,87.0759997 267.121998,86.8560019 267.534,86.472 C267.946002,86.0879981 268.152,85.4640043 268.152,84.6 C268.152,84.2639983 268.116,83.9800012 268.044,83.748 C267.972,83.5159988 267.872001,83.3180008 267.744,83.154 C267.615999,82.9899992 267.462001,82.8520006 267.282,82.74 C267.101999,82.6279994 266.900001,82.5240005 266.676,82.428 L265.728,82.044 L265.728,79.776 C265.936001,79.8400003 266.08,79.973999 266.16,80.178 C266.24,80.382001 266.284,80.6359985 266.292,80.94 L267.948,80.94 L267.948,80.772 C267.948,80.5079987 267.916,80.2480013 267.852,79.992 C267.788,79.7359987 267.672001,79.504001 267.504,79.296 C267.335999,79.087999 267.110001,78.9140007 266.826,78.774 C266.541999,78.6339993 266.176002,78.5440002 265.728,78.504 L265.728,77.676 L264.96,77.676 L264.96,78.504 C264.239996,78.5840004 263.686002,78.825998 263.298,79.23 C262.909998,79.634002 262.716,80.2079963 262.716,80.952 C262.716,81.5040028 262.843999,81.9739981 263.1,82.362 C263.356001,82.7500019 263.775997,83.047999 264.36,83.256 L264.96,83.472 L264.96,85.896 C264.799999,85.8559998 264.674,85.7900005 264.582,85.698 C264.49,85.6059995 264.42,85.4960006 264.372,85.368 C264.324,85.2399994 264.294,85.0980008 264.282,84.942 C264.27,84.7859992 264.264,84.6240008 264.264,84.456 L262.608,84.456 L262.608,84.708 C262.608,85.0200016 262.638,85.3159986 262.698,85.596 C262.758,85.8760014 262.871999,86.1259989 263.04,86.346 C263.208001,86.5660011 263.445998,86.7419993 263.754,86.874 C264.062002,87.0060007 264.463998,87.0919998 264.96,87.132 L264.96,87.132 Z M264.96,79.776 L264.96,81.696 C264.567998,81.4719989 264.372,81.1360022 264.372,80.688 C264.372,80.1919975 264.567998,79.8880006 264.96,79.776 L264.96,79.776 Z M265.728,85.896 L265.728,83.772 C265.960001,83.8920006 266.133999,84.0399991 266.25,84.216 C266.366001,84.3920009 266.424,84.6319985 266.424,84.936 C266.424,85.1600011 266.370001,85.3619991 266.262,85.542 C266.153999,85.7220009 265.976001,85.8399997 265.728,85.896 L265.728,85.896 Z" id="$" fill="#CAD0D7" sketch:type="MSShapeGroup"></path>
            <path d="M307.412,105.728 L307.412,99.704 L308.144,99.704 C308.472002,99.704 308.733999,99.7659994 308.93,99.89 C309.126001,100.014001 309.273999,100.197999 309.374,100.442 C309.474,100.686001 309.54,100.991998 309.572,101.36 C309.604,101.728002 309.62,102.155998 309.62,102.644 C309.62,103.228003 309.602,103.715998 309.566,104.108 C309.53,104.500002 309.458001,104.815999 309.35,105.056 C309.241999,105.296001 309.096001,105.467999 308.912,105.572 C308.727999,105.676001 308.484002,105.728 308.18,105.728 L307.412,105.728 Z M305.684,98.432 L305.684,107 L308.408,107 C308.984003,107 309.459998,106.912001 309.836,106.736 C310.212002,106.559999 310.511999,106.292002 310.736,105.932 C310.960001,105.571998 311.118,105.114003 311.21,104.558 C311.302,104.001997 311.348,103.348004 311.348,102.596 C311.348,101.963997 311.312,101.392003 311.24,100.88 C311.168,100.367997 311.030001,99.9300018 310.826,99.566 C310.621999,99.2019982 310.336002,98.922001 309.968,98.726 C309.599998,98.529999 309.116003,98.432 308.516,98.432 L305.684,98.432 Z M314.036,102.716 C314.036,102.139997 314.05,101.652002 314.078,101.252 C314.106,100.851998 314.162,100.524001 314.246,100.268 C314.33,100.011999 314.449999,99.8260006 314.606,99.71 C314.762001,99.5939994 314.967999,99.536 315.224,99.536 C315.480001,99.536 315.685999,99.5939994 315.842,99.71 C315.998001,99.8260006 316.118,100.011999 316.202,100.268 C316.286,100.524001 316.342,100.851998 316.37,101.252 C316.398,101.652002 316.412,102.139997 316.412,102.716 C316.412,103.292003 316.398,103.781998 316.37,104.186 C316.342,104.590002 316.286,104.917999 316.202,105.17 C316.118,105.422001 315.998001,105.605999 315.842,105.722 C315.685999,105.838001 315.480001,105.896 315.224,105.896 C314.967999,105.896 314.762001,105.838001 314.606,105.722 C314.449999,105.605999 314.33,105.422001 314.246,105.17 C314.162,104.917999 314.106,104.590002 314.078,104.186 C314.05,103.781998 314.036,103.292003 314.036,102.716 L314.036,102.716 Z M312.308,102.716 C312.308,103.372003 312.338,103.971997 312.398,104.516 C312.458,105.060003 312.589999,105.527998 312.794,105.92 C312.998001,106.312002 313.291998,106.611999 313.676,106.82 C314.060002,107.028001 314.575997,107.132 315.224,107.132 C315.872003,107.132 316.387998,107.028001 316.772,106.82 C317.156002,106.611999 317.449999,106.312002 317.654,105.92 C317.858001,105.527998 317.99,105.060003 318.05,104.516 C318.11,103.971997 318.14,103.372003 318.14,102.716 C318.14,102.067997 318.11,101.470003 318.05,100.922 C317.99,100.373997 317.858001,99.904002 317.654,99.512 C317.449999,99.119998 317.156002,98.8140011 316.772,98.594 C316.387998,98.3739989 315.872003,98.264 315.224,98.264 C314.575997,98.264 314.060002,98.3739989 313.676,98.594 C313.291998,98.8140011 312.998001,99.119998 312.794,99.512 C312.589999,99.904002 312.458,100.373997 312.398,100.922 C312.338,101.470003 312.308,102.067997 312.308,102.716 L312.308,102.716 Z M319.16,107 L323.948,107 L323.948,105.584 L320.888,105.584 L320.888,98.432 L319.16,98.432 L319.16,107 Z M324.716,107 L329.504,107 L329.504,105.584 L326.444,105.584 L326.444,98.432 L324.716,98.432 L324.716,107 Z M333.848,103.772 L333.02,99.92 L332.996,99.92 L332.168,103.772 L333.848,103.772 Z M334.076,98.432 L336.344,107 L334.544,107 L334.148,105.188 L331.868,105.188 L331.472,107 L329.672,107 L331.94,98.432 L334.076,98.432 Z M336.944,98.432 L336.944,107 L338.672,107 L338.672,103.376 L339.596,103.376 C339.956002,103.376 340.211999,103.471999 340.364,103.664 C340.516001,103.856001 340.6,104.119998 340.616,104.456 L340.664,106.1 C340.672,106.268001 340.688,106.429999 340.712,106.586 C340.736,106.742001 340.792,106.879999 340.88,107 L342.752,107 L342.752,106.928 C342.591999,106.84 342.488,106.676001 342.44,106.436 C342.408,106.195999 342.384,105.848002 342.368,105.392 C342.36,105.159999 342.352,104.950001 342.344,104.762 C342.336,104.573999 342.324,104.400001 342.308,104.24 C342.26,103.759998 342.136001,103.412001 341.936,103.196 C341.735999,102.979999 341.420002,102.84 340.988,102.776 L340.988,102.752 C341.476002,102.647999 341.835999,102.414002 342.068,102.05 C342.300001,101.685998 342.416,101.216003 342.416,100.64 C342.416,99.8959963 342.216002,99.3420018 341.816,98.978 C341.415998,98.6139982 340.856004,98.432 340.136,98.432 L336.944,98.432 Z M338.672,102.176 L338.672,99.704 L339.488,99.704 C340.288004,99.704 340.688,100.099996 340.688,100.892 C340.688,101.356002 340.576001,101.685999 340.352,101.882 C340.127999,102.078001 339.808002,102.176 339.392,102.176 L338.672,102.176 Z M345.008,104.324 L343.28,104.324 L343.28,104.672 C343.28,105.464004 343.489998,106.071998 343.91,106.496 C344.330002,106.920002 345.027995,107.132 346.004,107.132 C346.940005,107.132 347.669997,106.926002 348.194,106.514 C348.718003,106.101998 348.98,105.444005 348.98,104.54 C348.98,104.275999 348.956,104.036001 348.908,103.82 C348.86,103.603999 348.774001,103.406001 348.65,103.226 C348.525999,103.045999 348.360001,102.878001 348.152,102.722 C347.943999,102.565999 347.676002,102.416001 347.348,102.272 L346.016,101.696 C345.647998,101.543999 345.408001,101.378001 345.296,101.198 C345.183999,101.017999 345.128,100.796001 345.128,100.532 C345.128,100.403999 345.142,100.280001 345.17,100.16 C345.198,100.039999 345.25,99.9340005 345.326,99.842 C345.402,99.7499995 345.503999,99.6760003 345.632,99.62 C345.760001,99.5639997 345.919999,99.536 346.112,99.536 C346.448002,99.536 346.687999,99.6459989 346.832,99.866 C346.976001,100.086001 347.048,100.399998 347.048,100.808 L348.704,100.808 L348.704,100.568 C348.704,100.159998 348.638001,99.8100015 348.506,99.518 C348.373999,99.2259985 348.190001,98.9860009 347.954,98.798 C347.717999,98.6099991 347.438002,98.4740004 347.114,98.39 C346.789998,98.3059996 346.436002,98.264 346.052,98.264 C345.227996,98.264 344.580002,98.4719979 344.108,98.888 C343.635998,99.3040021 343.4,99.9359958 343.4,100.784 C343.4,101.136002 343.444,101.445999 343.532,101.714 C343.62,101.982001 343.757999,102.217999 343.946,102.422 C344.134001,102.626001 344.367999,102.803999 344.648,102.956 C344.928001,103.108001 345.259998,103.247999 345.644,103.376 C345.932001,103.472 346.173999,103.566 346.37,103.658 C346.566001,103.75 346.723999,103.851999 346.844,103.964 C346.964001,104.076001 347.05,104.201999 347.102,104.342 C347.154,104.482001 347.18,104.647999 347.18,104.84 C347.18,105.200002 347.074001,105.465999 346.862,105.638 C346.649999,105.810001 346.412001,105.896 346.148,105.896 C345.923999,105.896 345.738001,105.864 345.59,105.8 C345.441999,105.736 345.324,105.648001 345.236,105.536 C345.148,105.423999 345.088,105.286001 345.056,105.122 C345.024,104.957999 345.008,104.776001 345.008,104.576 L345.008,104.324 Z" id="DOLLARS" fill="#CAD0D7" sketch:type="MSShapeGroup"></path>
        </g>
    </g>
</svg>